<svg xmlns="http://www.w3.org/2000/svg" xmlns:xlink="http://www.w3.org/1999/xlink" width="500" zoomAndPan="magnify" viewBox="0 0 375 374.999991" height="500" preserveAspectRatio="xMidYMid meet" version="1.0"><defs><g/></defs><g fill="#000000" fill-opacity="1"><g transform="translate(-1.330704, 233.577)"><g><path d="M 3.125 -104.078125 L 80.4375 -104.078125 L 81.921875 -74.640625 L 79.25 -74.640625 C 75.082031 -84.648438 70.71875 -91.515625 66.15625 -95.234375 C 61.601562 -98.953125 54.914062 -100.8125 46.09375 -100.8125 L 40.890625 -100.8125 L 40.890625 -54.859375 L 45.9375 -54.859375 C 50.601562 -54.859375 54.519531 -56.617188 57.6875 -60.140625 C 60.863281 -63.660156 63.09375 -68.394531 64.375 -74.34375 L 66.609375 -74.34375 L 66.609375 -30.328125 L 64.078125 -30.328125 C 62.296875 -37.765625 59.894531 -43.066406 56.875 -46.234375 C 53.851562 -49.410156 49.710938 -51 44.453125 -51 L 40.890625 -51 L 40.890625 -3.265625 L 46.546875 -3.265625 C 55.660156 -3.265625 63.414062 -5.988281 69.8125 -11.4375 C 76.207031 -16.894531 80.59375 -23.882812 82.96875 -32.40625 L 85.9375 -32.40625 L 84.75 0 L 3.125 0 L 3.125 -3.265625 L 11.890625 -3.265625 L 11.890625 -100.8125 L 3.125 -100.8125 Z M 3.125 -104.078125 "/></g></g></g><g fill="#000000" fill-opacity="1"><g transform="translate(91.449703, 233.577)"><g><path d="M 48.328125 -1.640625 C 53.285156 -1.640625 57.671875 -2.976562 61.484375 -5.65625 C 65.296875 -8.332031 67.203125 -12.367188 67.203125 -17.765625 C 67.203125 -23.171875 65.144531 -27.3125 61.03125 -30.1875 C 56.914062 -33.0625 51.066406 -35.5625 43.484375 -37.6875 C 35.898438 -39.820312 30.398438 -41.679688 26.984375 -43.265625 C 23.566406 -44.847656 20.320312 -46.929688 17.25 -49.515625 C 11.101562 -54.671875 8.03125 -62.648438 8.03125 -73.453125 C 8.03125 -82.273438 11.175781 -89.859375 17.46875 -96.203125 C 23.757812 -102.546875 32.359375 -105.71875 43.265625 -105.71875 C 48.523438 -105.71875 54.003906 -104.945312 59.703125 -103.40625 C 65.398438 -101.875 68.941406 -101.109375 70.328125 -101.109375 C 71.710938 -101.109375 72.953125 -102.097656 74.046875 -104.078125 L 75.6875 -104.078125 L 76.71875 -74.046875 L 74.34375 -74.046875 C 69.582031 -82.671875 64.597656 -89.582031 59.390625 -94.78125 C 54.191406 -99.988281 48.546875 -102.59375 42.453125 -102.59375 C 36.359375 -102.59375 31.625 -101.179688 28.25 -98.359375 C 24.875 -95.535156 23.1875 -91.769531 23.1875 -87.0625 C 23.1875 -82.351562 25.191406 -78.734375 29.203125 -76.203125 C 33.222656 -73.671875 38.15625 -71.613281 44 -70.03125 C 49.851562 -68.445312 53.695312 -67.359375 55.53125 -66.765625 C 57.363281 -66.171875 59.644531 -65.351562 62.375 -64.3125 C 65.101562 -63.269531 67.332031 -62.175781 69.0625 -61.03125 C 70.800781 -59.894531 72.632812 -58.457031 74.5625 -56.71875 C 76.5 -54.988281 78.015625 -53.082031 79.109375 -51 C 81.773438 -46.238281 83.109375 -40.585938 83.109375 -34.046875 C 83.109375 -23.335938 79.765625 -14.738281 73.078125 -8.25 C 66.390625 -1.757812 57.59375 1.484375 46.6875 1.484375 C 41.039062 1.484375 34.570312 0.742188 27.28125 -0.734375 C 20 -2.222656 15.960938 -2.96875 15.171875 -2.96875 C 13.773438 -2.96875 12.4375 -1.484375 11.15625 1.484375 L 9.0625 1.484375 L 7.578125 -33.90625 L 10.109375 -33.90625 C 14.472656 -25.28125 20.046875 -17.742188 26.828125 -11.296875 C 33.617188 -4.859375 40.785156 -1.640625 48.328125 -1.640625 Z M 48.328125 -1.640625 "/></g></g></g><g fill="#000000" fill-opacity="1"><g transform="translate(180.661599, 233.577)"><g><path d="M 3.125 -104.078125 L 80.4375 -104.078125 L 81.921875 -74.640625 L 79.25 -74.640625 C 75.082031 -84.648438 70.71875 -91.515625 66.15625 -95.234375 C 61.601562 -98.953125 54.914062 -100.8125 46.09375 -100.8125 L 40.890625 -100.8125 L 40.890625 -54.859375 L 45.9375 -54.859375 C 50.601562 -54.859375 54.519531 -56.617188 57.6875 -60.140625 C 60.863281 -63.660156 63.09375 -68.394531 64.375 -74.34375 L 66.609375 -74.34375 L 66.609375 -30.328125 L 64.078125 -30.328125 C 62.296875 -37.765625 59.894531 -43.066406 56.875 -46.234375 C 53.851562 -49.410156 49.710938 -51 44.453125 -51 L 40.890625 -51 L 40.890625 -3.265625 L 46.546875 -3.265625 C 55.660156 -3.265625 63.414062 -5.988281 69.8125 -11.4375 C 76.207031 -16.894531 80.59375 -23.882812 82.96875 -32.40625 L 85.9375 -32.40625 L 84.75 0 L 3.125 0 L 3.125 -3.265625 L 11.890625 -3.265625 L 11.890625 -100.8125 L 3.125 -100.8125 Z M 3.125 -104.078125 "/></g></g></g><g fill="#000000" fill-opacity="1"><g transform="translate(273.442007, 233.577)"><g><path d="M 94.5625 -104.078125 L 96.046875 -66.765625 L 93.234375 -66.765625 C 88.867188 -79.941406 85 -88.929688 81.625 -93.734375 C 78.257812 -98.546875 73.40625 -100.953125 67.0625 -100.953125 L 65.28125 -100.953125 L 65.28125 -3.125 L 77.90625 -3.125 L 77.90625 0 L 23.640625 0 L 23.640625 -3.125 L 36.28125 -3.125 L 36.28125 -100.953125 L 34.34375 -100.953125 C 28 -100.953125 23.09375 -98.445312 19.625 -93.4375 C 16.15625 -88.4375 12.335938 -79.546875 8.171875 -66.765625 L 5.359375 -66.765625 L 6.84375 -104.078125 Z M 94.5625 -104.078125 "/></g></g></g></svg>