<svg xmlns="http://www.w3.org/2000/svg" xmlns:xlink="http://www.w3.org/1999/xlink" width="500" zoomAndPan="magnify" viewBox="0 0 375 374.999991" height="500" preserveAspectRatio="xMidYMid meet" version="1.0"><defs><g/></defs><g fill="#ff914d" fill-opacity="1"><g transform="translate(5.165867, 247.933011)"><g><path d="M 3.890625 -129.84375 L 100.34375 -129.84375 L 102.203125 -93.109375 L 98.859375 -93.109375 C 93.671875 -105.597656 88.234375 -114.160156 82.546875 -118.796875 C 76.859375 -123.441406 68.507812 -125.765625 57.5 -125.765625 L 51.015625 -125.765625 L 51.015625 -68.4375 L 57.3125 -68.4375 C 63.125 -68.4375 68.007812 -70.628906 71.96875 -75.015625 C 75.925781 -79.410156 78.707031 -85.320312 80.3125 -92.75 L 83.09375 -92.75 L 83.09375 -37.84375 L 79.9375 -37.84375 C 77.71875 -47.113281 74.722656 -53.726562 70.953125 -57.6875 C 67.179688 -61.644531 62.015625 -63.625 55.453125 -63.625 L 51.015625 -63.625 L 51.015625 -4.078125 L 58.0625 -4.078125 C 69.4375 -4.078125 79.109375 -7.476562 87.078125 -14.28125 C 95.054688 -21.082031 100.53125 -29.800781 103.5 -40.4375 L 107.203125 -40.4375 L 105.71875 0 L 3.890625 0 L 3.890625 -4.078125 L 14.84375 -4.078125 L 14.84375 -125.765625 L 3.890625 -125.765625 Z M 3.890625 -129.84375 "/></g></g></g><g fill="#ff914d" fill-opacity="1"><g transform="translate(120.908131, 247.933011)"><g><path d="M 11.125 -26.53125 L 11.125 -84.953125 L 0.921875 -84.953125 L 0.921875 -88.296875 L 11.125 -88.296875 L 11.125 -112.21875 L 45.625 -120.75 L 45.625 -88.296875 L 69.734375 -88.296875 L 69.734375 -84.953125 L 45.625 -84.953125 L 45.625 -22.4375 C 45.625 -16.625 46.210938 -12.359375 47.390625 -9.640625 C 48.566406 -6.921875 51.007812 -5.5625 54.71875 -5.5625 C 58.425781 -5.5625 61.671875 -7.414062 64.453125 -11.125 C 67.234375 -14.832031 69.054688 -19.90625 69.921875 -26.34375 L 73.078125 -25.96875 C 72.085938 -17.4375 69.363281 -10.664062 64.90625 -5.65625 C 60.457031 -0.644531 53.101562 1.859375 42.84375 1.859375 C 32.582031 1.859375 24.726562 -0.179688 19.28125 -4.265625 C 13.84375 -8.347656 11.125 -15.769531 11.125 -26.53125 Z M 11.125 -26.53125 "/></g></g></g><g fill="#ff914d" fill-opacity="1"><g transform="translate(193.988987, 247.933011)"><g><path d="M 6.125 1.859375 L 6.125 -31.34375 L 8.34375 -31.34375 C 11.5625 -20.582031 15.890625 -13.035156 21.328125 -8.703125 C 26.765625 -4.378906 33.566406 -2.21875 41.734375 -2.21875 C 54.347656 -2.21875 60.65625 -6.238281 60.65625 -14.28125 C 60.65625 -17.738281 59.109375 -20.335938 56.015625 -22.078125 C 51.191406 -24.796875 45.007812 -26.894531 37.46875 -28.375 C 29.0625 -30.601562 22.015625 -33.570312 16.328125 -37.28125 C 9.523438 -41.726562 6.125 -48.773438 6.125 -58.421875 C 6.125 -68.066406 9.085938 -75.765625 15.015625 -81.515625 C 20.953125 -87.265625 28.867188 -90.140625 38.765625 -90.140625 C 44.828125 -90.140625 51.070312 -88.71875 57.5 -85.875 C 59.851562 -84.882812 61.644531 -84.390625 62.875 -84.390625 C 64.113281 -84.390625 65.164062 -84.820312 66.03125 -85.6875 C 66.894531 -86.5625 67.945312 -88.171875 69.1875 -90.515625 L 71.21875 -90.515625 L 71.21875 -62.140625 L 69 -62.140625 C 62.695312 -78.210938 52.925781 -86.25 39.6875 -86.25 C 33.875 -86.25 29.546875 -85.226562 26.703125 -83.1875 C 23.859375 -81.144531 22.4375 -78.578125 22.4375 -75.484375 C 22.4375 -73.628906 22.867188 -72.175781 23.734375 -71.125 C 24.609375 -70.082031 25.289062 -69.3125 25.78125 -68.8125 C 26.28125 -68.320312 27.082031 -67.796875 28.1875 -67.234375 C 29.300781 -66.679688 30.226562 -66.25 30.96875 -65.9375 C 31.71875 -65.625 32.863281 -65.21875 34.40625 -64.71875 C 35.945312 -64.226562 37.09375 -63.925781 37.84375 -63.8125 C 46.25 -61.707031 52.304688 -59.878906 56.015625 -58.328125 C 59.722656 -56.785156 63.25 -54.898438 66.59375 -52.671875 C 73.394531 -47.972656 76.796875 -40.398438 76.796875 -29.953125 C 76.796875 -19.503906 73.703125 -11.585938 67.515625 -6.203125 C 61.328125 -0.828125 52.859375 1.859375 42.109375 1.859375 C 34.441406 1.859375 27.019531 0.0625 19.84375 -3.53125 C 18.363281 -4.519531 17.191406 -5.015625 16.328125 -5.015625 C 13.597656 -5.015625 10.9375 -2.722656 8.34375 1.859375 Z M 6.125 1.859375 "/></g></g></g><g fill="#ff914d" fill-opacity="1"><g transform="translate(274.489229, 247.933011)"><g><path d="M 50.640625 1.859375 C 34.679688 1.859375 22.710938 -2.25 14.734375 -10.46875 C 6.765625 -18.695312 2.78125 -30.140625 2.78125 -44.796875 C 2.78125 -59.453125 7.257812 -70.671875 16.21875 -78.453125 C 25.1875 -86.242188 36.597656 -90.140625 50.453125 -90.140625 C 78.523438 -90.140625 92.003906 -76.046875 90.890625 -47.859375 L 38.578125 -47.859375 L 38.578125 -40.625 C 38.578125 -28.5 40.125 -19.34375 43.21875 -13.15625 C 46.3125 -6.976562 51.691406 -3.890625 59.359375 -3.890625 C 73.703125 -3.890625 83.097656 -11.554688 87.546875 -26.890625 L 90.890625 -26.34375 C 88.535156 -17.4375 84.296875 -10.507812 78.171875 -5.5625 C 72.054688 -0.613281 62.878906 1.859375 50.640625 1.859375 Z M 38.765625 -51.5625 L 57.875 -51.5625 L 57.875 -60.65625 C 57.875 -70.664062 57.285156 -77.492188 56.109375 -81.140625 C 54.929688 -84.796875 52.582031 -86.625 49.0625 -86.625 C 45.539062 -86.625 42.941406 -84.675781 41.265625 -80.78125 C 39.597656 -76.882812 38.765625 -70.175781 38.765625 -60.65625 Z M 38.765625 -51.5625 "/></g></g></g></svg>