<?xml version="1.0" encoding="iso-8859-1"?>
<!-- Uploaded to: SVG Repo, www.svgrepo.com, Generator: SVG Repo Mixer Tools -->
<svg height="800px" width="800px" version="1.1" id="Layer_1" xmlns="http://www.w3.org/2000/svg" xmlns:xlink="http://www.w3.org/1999/xlink" 
	 viewBox="0 0 512.001 512.001" xml:space="preserve">
<path style="fill:#FF6B58;" d="M310.356,17.846c-17.025,5.915-35.313,9.13-54.353,9.13c-19.04,0-37.328-3.214-54.353-9.13v107.92
	h108.706V17.846z"/>
<path style="fill:#FF462E;" d="M281.456,512c115.885-5.354,165.171-46.181,165.171-46.181
	c-9.806-97.993-89.132-181.633-120.582-225.018c0,0,19.168-32.762,26.234-129.064l36.104,16.919l35.921-55.617L352.279,8.472
	L315.675,0c0,0-18.844,77.347-59.674,103.012C215.17,77.347,196.326,0,196.326,0l-36.605,8.472L87.697,73.04l35.921,55.617
	l36.104-16.919c7.066,96.3,26.234,129.064,26.234,129.064C154.506,284.187,75.179,367.827,65.374,465.82
	c0,0,49.286,40.827,165.171,46.181l25.455-38.095L281.456,512z"/>
<path style="fill:#4D3A2D;" d="M326.046,249.335h-140.09c-4.713,0-8.533-3.821-8.533-8.533c0-4.713,3.821-8.533,8.533-8.533h140.09
	c4.713,0,8.533,3.821,8.533,8.533C334.579,245.514,330.758,249.335,326.046,249.335z"/>
<path style="fill:#261D16;" d="M294.181,232.268v101.633c0,4.713,3.821,8.533,8.533,8.533c4.713,0,8.533-3.821,8.533-8.533V232.268
	H294.181z"/>
<g>
	<circle style="fill:#FFFFFF;" cx="256.001" cy="173.01" r="8.533"/>
	<circle style="fill:#FFFFFF;" cx="256.001" cy="438.329" r="8.533"/>
	<circle style="fill:#FFFFFF;" cx="256.001" cy="403.331" r="8.533"/>
	<circle style="fill:#FFFFFF;" cx="256.001" cy="333.335" r="8.533"/>
	<circle style="fill:#FFFFFF;" cx="256.001" cy="138.012" r="8.533"/>
</g>
</svg>