<?xml version="1.0" encoding="iso-8859-1"?>
<!-- Uploaded to: SVG Repo, www.svgrepo.com, Generator: SVG Repo Mixer Tools -->
<svg height="800px" width="800px" version="1.1" id="Layer_1" xmlns="http://www.w3.org/2000/svg" xmlns:xlink="http://www.w3.org/1999/xlink" 
	 viewBox="0 0 511.999 511.999" xml:space="preserve">
<g transform="translate(0 -1)">
	<path style="fill:#4482C3;" d="M291.309,354.103l22.793,74.072c7.345,23.879,27.701,41.525,52.383,45.365
		c36.582,5.685,57.238,12.977,57.238,12.977c0-88.779-35.372-157.193-94.261-226.339c-7.53-8.845-11.67-20.127-11.67-31.744v-0.371
		c0-8.598,2.207-17.002,6.541-24.444c7.839-13.48,19.942-42.982,19.942-96.689c-22.298-15.89-64.689-12.606-88.276,26.483
		c-23.587-39.089-65.977-42.372-88.276-26.483c0,53.707,12.103,83.209,19.942,96.689c4.334,7.442,6.541,15.846,6.541,24.444v0.371
		c0,11.617-4.14,22.899-11.67,31.744c-58.889,69.146-94.261,137.56-94.261,226.339c19.174-9.587,64.388-13.974,103.124-15.969
		c39.027-2.022,72.704-28.019,84.197-65.377L291.309,354.103z"/>
	<path style="fill:#FDD7AD;" d="M291.309,36.31c-9.754,0-17.655-7.91-17.655-17.655V1h-17.655h-17.655v17.655
		c0,9.746-7.901,17.655-17.655,17.655c-61.793,0-79.484,14.892-79.484,35.31c0,8.457,16.808,26.386,26.518,35.31
		c22.298-15.89,64.689-12.606,88.276,26.483c23.587-39.089,65.977-42.372,88.276-26.483c9.71-8.925,26.518-26.854,26.518-35.31
		C370.793,51.202,353.103,36.31,291.309,36.31"/>
	<g>
		<path style="fill:#285680;" d="M167.723,106.931c0,23.322,2.313,41.975,5.535,56.841c4.996,3.575,12.376,7.265,20.551,10.62
			c28.954,11.864,61.828-9.684,62.19-40.978C232.412,94.325,190.022,91.041,167.723,106.931"/>
		<path style="fill:#285680;" d="M344.275,106.931c0,23.322-2.313,41.975-5.535,56.841c-4.996,3.575-12.376,7.265-20.551,10.62
			c-28.954,11.864-61.828-9.684-62.19-40.978C279.586,94.325,321.977,91.041,344.275,106.931"/>
		<path style="fill:#285680;" d="M366.486,473.54c-24.682-3.84-45.038-21.486-52.383-45.365l-22.793-74.072l-15.713,51.068
			c-11.494,37.358-45.171,63.356-84.198,65.377c-38.735,2.004-83.95,6.382-103.124,15.969c0,0,70.621,26.483,167.724,26.483
			s167.724-26.483,167.724-26.483S403.068,479.225,366.486,473.54"/>
	</g>
	<path style="fill:#E57E25;" d="M264.827,257h-17.655c-4.873,0-8.828-3.955-8.828-8.828v-35.31c0-4.873,3.955-8.828,8.828-8.828
		h17.655c4.873,0,8.828,3.955,8.828,8.828v35.31C273.654,253.045,269.7,257,264.827,257"/>
	<g>
		<path style="fill:#F0C419;" d="M191.698,212.862c1.598,4.89,2.507,10.002,2.507,15.201v0.371c0,6.868-1.607,13.542-4.343,19.738
			h48.481v-35.31H191.698z"/>
		<path style="fill:#F0C419;" d="M317.792,228.436v-0.371c0-5.208,0.909-10.311,2.507-15.201h-46.645v35.31h48.481
			C319.399,241.977,317.792,235.304,317.792,228.436"/>
	</g>
	<g>
		<path style="fill:#4482C3;" d="M317.311,37.431c-0.018,0.141-0.097,0.247-0.106,0.388l-3.814,60.16
			c0,0.026,0.009,0.035,0.009,0.062c6.065-0.097,11.9,0.733,17.276,2.366c0.097-0.441,0.309-0.839,0.344-1.306l3.743-59.171
			C329.634,38.87,323.817,38.032,317.311,37.431"/>
		<path style="fill:#4482C3;" d="M180.982,99.104c0.026,0.468,0.238,0.856,0.335,1.298c5.376-1.624,11.22-2.454,17.276-2.366
			c0-0.018,0.009-0.035,0.009-0.053l-3.814-60.16c-0.009-0.141-0.088-0.256-0.106-0.388c-6.506,0.6-12.314,1.43-17.452,2.489
			L180.982,99.104z"/>
	</g>
</g>
</svg>