<?xml version="1.0" encoding="iso-8859-1"?>
<!-- Uploaded to: SVG Repo, www.svgrepo.com, Generator: SVG Repo Mixer Tools -->
<svg height="800px" width="800px" version="1.1" id="Layer_1" xmlns="http://www.w3.org/2000/svg" xmlns:xlink="http://www.w3.org/1999/xlink" 
	 viewBox="0 0 512.014 512.014" xml:space="preserve">
<g transform="translate(-1 -1)">
	<path style="fill:#C03A2B;" d="M318.8,228.94v-1.421c0-8.289,2.127-16.402,6.329-23.543c7.839-13.312,20.153-42.867,20.153-97.042
		c-22.298-15.89-64.689-12.606-88.276,26.483c-23.587-39.089-65.977-42.372-88.276-26.483c0,54.175,12.314,83.73,20.153,97.042
		c4.202,7.142,6.329,15.254,6.329,23.543v1.421c0,11.926-4.758,23.208-12.676,32.124c-58.289,65.633-41.807,148.339-22.634,225.457
		h52.966c25.37,0,46.919-18.564,50.688-43.652l19.933-132.899l19.933,132.899c3.769,25.088,25.318,43.652,50.688,43.652
		c19.174-77.118,35.655-159.823-22.634-225.457C323.558,252.147,318.8,240.866,318.8,228.94"/>
	<path style="fill:#FDD7AD;" d="M292.317,36.31c-9.754,0-17.655-7.91-17.655-17.655V1h-17.655h-17.655v17.655
		c0,9.746-7.901,17.655-17.655,17.655c-61.793,0-79.484,14.892-79.484,35.31c0,8.457,16.808,26.386,26.518,35.31
		c22.298-15.89,64.689-12.606,88.276,26.483c23.587-39.089,65.977-42.372,88.276-26.483c9.71-8.925,26.518-26.854,26.518-35.31
		C371.801,51.202,354.11,36.31,292.317,36.31"/>
	<g>
		<path style="fill:#9B2B23;" d="M168.731,106.931c0,23.322,2.313,41.975,5.535,56.841c4.996,3.575,12.376,7.265,20.551,10.62
			c28.954,11.864,61.828-9.684,62.19-40.978C233.42,94.325,191.029,91.041,168.731,106.931"/>
		<path style="fill:#9B2B23;" d="M345.283,106.931c0,23.322-2.313,41.975-5.535,56.841c-4.996,3.575-12.376,7.265-20.551,10.62
			c-28.954,11.864-61.828-9.684-62.19-40.978C280.594,94.325,322.984,91.041,345.283,106.931"/>
		<path style="fill:#9B2B23;" d="M303.425,442.867l-19.933-132.899l-19.941,132.899c-3.761,25.088-25.309,43.652-50.679,43.652
			h-52.966c67.09,35.796,133.967,34.851,194.207,0C328.742,486.52,307.186,467.955,303.425,442.867"/>
	</g>
	<g>
		<path style="fill:#C03A2B;" d="M318.319,37.431c-0.018,0.141-0.097,0.247-0.106,0.388l-3.814,60.16
			c0,0.026,0.009,0.035,0.009,0.062c6.065-0.097,11.9,0.733,17.276,2.366c0.097-0.441,0.309-0.839,0.344-1.306l3.743-59.171
			C330.642,38.87,324.825,38.032,318.319,37.431"/>
		<path style="fill:#C03A2B;" d="M181.99,99.104c0.026,0.468,0.238,0.856,0.335,1.298c5.376-1.624,11.22-2.454,17.276-2.366
			c0-0.018,0.009-0.035,0.009-0.053l-3.814-60.16c-0.009-0.141-0.088-0.256-0.106-0.388c-6.506,0.6-12.314,1.43-17.452,2.489
			L181.99,99.104z"/>
	</g>
</g>
</svg>