<?xml version="1.0" encoding="iso-8859-1"?>
<!-- Uploaded to: SVG Repo, www.svgrepo.com, Generator: SVG Repo Mixer Tools -->
<svg version="1.1" id="Layer_1" xmlns="http://www.w3.org/2000/svg" xmlns:xlink="http://www.w3.org/1999/xlink" 
	 viewBox="0 0 392.534 392.534" xml:space="preserve">
<path style="fill:#56ACE0;" d="M21.851,322.974c0,6.012,4.848,10.925,10.925,10.925h327.111c6.012,0,10.925-4.848,10.925-10.925
	v-25.341H21.851V322.974z"/>
<path style="fill:#FFFFFF;" d="M340.816,69.56c0-6.012-4.848-10.925-10.925-10.925H62.707c-6.012,0-10.925,4.848-10.925,10.925
	v206.287h288.97V69.56H340.816z"/>
<rect x="95.418" y="102.206" style="fill:#FFC10D;" width="201.826" height="130.069"/>
<path style="fill:#56ACE0;" d="M231.887,149.528c0-9.18-8.727-16.485-18.36-13.834c-3.426,0.905-6.271,3.232-8.21,6.206l0,0
	c-4.267,6.465-13.77,6.465-17.907,0c-1.939-2.909-4.784-5.236-8.21-6.206c-9.632-2.651-18.36,4.655-18.36,13.834
	c0,9.438,17.325,29.996,35.491,46.352C214.562,179.2,231.887,158.32,231.887,149.528z"/>
<g>
	<path style="fill:#194F82;" d="M381.737,275.847h-19.006V69.56c0-18.036-14.675-32.711-32.711-32.711H62.707
		c-18.036,0-32.711,14.675-32.711,32.711v206.287H10.925C4.913,275.847,0,280.695,0,286.772v36.202
		c0,18.036,14.675,32.711,32.711,32.711h327.111c18.036,0,32.711-14.675,32.711-32.711v-36.202
		C392.598,280.695,387.749,275.847,381.737,275.847z M51.846,69.56c0-6.012,4.848-10.925,10.925-10.925h267.313
		c6.012,0,10.925,4.848,10.925,10.925v206.287H51.846V69.56z M370.812,322.974L370.812,322.974c0,6.012-4.848,10.925-10.925,10.925
		H32.776c-6.012,0-10.925-4.848-10.925-10.925v-25.341h348.962L370.812,322.974L370.812,322.974z"/>
	<path style="fill:#194F82;" d="M308.17,80.421H84.493c-6.012,0-10.925,4.848-10.925,10.925V243.2
		c0,6.012,4.848,10.925,10.925,10.925H308.17c6.012,0,10.925-4.848,10.925-10.925V91.346
		C319.03,85.334,314.182,80.421,308.17,80.421z M297.244,232.275H95.418V102.206h201.826V232.275z"/>
	<path style="fill:#194F82;" d="M189.35,218.699l0.065,0.065c4.008,3.297,9.826,3.297,13.77-0.065l0.065-0.065
		c8.404-7.046,50.295-43.572,50.295-69.172c0.065-19.911-16.162-36.137-36.073-36.137c-7.758,0-15.063,2.457-21.204,6.788
		c-6.012-4.396-13.446-6.788-21.204-6.788c-19.911,0-36.137,16.226-36.137,36.137C138.99,175.645,180.945,211.717,189.35,218.699z
		 M179.2,135.693c3.426,0.905,6.271,3.232,8.21,6.206c4.267,6.465,13.77,6.465,17.907,0c1.939-2.909,4.784-5.236,8.21-6.206
		c9.632-2.651,18.36,4.655,18.36,13.834c0,8.792-17.325,29.673-35.556,46.352c-18.23-16.356-35.556-37.042-35.556-46.352
		C160.776,140.348,169.503,133.043,179.2,135.693z"/>
</g>
</svg>