<?xml version="1.0" encoding="iso-8859-1"?>
<!-- Uploaded to: SVG Repo, www.svgrepo.com, Generator: SVG Repo Mixer Tools -->
<svg height="800px" width="800px" version="1.1" id="Layer_1" xmlns="http://www.w3.org/2000/svg" xmlns:xlink="http://www.w3.org/1999/xlink" 
	 viewBox="0 0 512.001 512.001" xml:space="preserve">
<path style="fill:#211C1A;" d="M23.012,210.892l16.084,226.867h35.369V310.202c0-13.778,6.405-26.133,16.386-34.233v-65.076
	L23.012,210.892L23.012,210.892z"/>
<path style="fill:#F11C35;" d="M462.698,359.233L361.62,320.227l-47.171,13.906c-1.537,0.453-3.132,0.809-4.764,1.083
	l157.922,71.405l34.272-1.543C496.568,385.26,480.979,366.287,462.698,359.233z"/>
<polygon style="fill:#FE676C;" points="31.359,74.242 11.328,165.35 49.608,214.77 58.442,103.251 "/>
<path style="fill:#FF3845;" d="M467.608,406.619c-3.9-7.676-10.396-14.474-16.675-16.897l-141.247-54.507
	c-16.895,2.828-38.201-3.781-49.518-15.903L58.442,103.251l-19.728,89.732L252.09,423.597L467.608,406.619z"/>
<path style="fill:#B70E21;" d="M501.88,405.078h-35.098l-9.228,16.34l13.594,16.34h32.681v-18.566
	C503.829,414.538,503.142,409.784,501.88,405.078z"/>
<path style="fill:#FF3845;" d="M38.969,191.818L11.327,165.35l-2.301,10.467c-3.254,14.801,3.039,35.487,13.985,45.969
	l19.277,18.459L38.969,191.818z"/>
<path style="fill:#E30026;" d="M470.314,413.539c-0.767-2.858-1.997-5.731-3.532-8.462H270.609
	c-3.743-0.022-12.646-3.597-15.364-6.169L38.969,191.818l-0.558,2.54l-2.302,10.466c-2.366,10.763,0.332,24.621,6.179,35.42
	l190.355,182.27c8.756,8.385,25.841,15.246,37.965,15.246h200.54v-18.566C471.148,417.53,470.86,415.576,470.314,413.539z"/>
<path d="M465.639,351.61l-101.078-39.006c-1.68-0.647-3.526-0.724-5.252-0.215l-47.171,13.906c-3.159,0.93-6.712,1.403-10.557,1.403
	c-13.402,0-27.645-5.61-35.442-13.961L37.331,68.667c-2.072-2.219-5.203-3.108-8.13-2.304c-2.928,0.802-5.169,3.16-5.822,6.125
	L1.047,174.063c-3.637,16.546,2.476,38.35,14.035,51.261l15.865,213.041c0.318,4.265,3.871,7.563,8.147,7.563h35.369
	c4.512,0,8.17-3.658,8.17-8.17V321.094c0-8.464,2.986-16.514,8.34-22.921l136.018,130.241c10.256,9.822,29.415,17.515,43.616,17.515
	H503.83c4.512,0,8.17-3.658,8.17-8.17v-18.566C512,391.792,491.202,361.475,465.639,351.61z M66.296,321.094v108.494H46.681
	l-13.94-187.176l46.408,44.436C70.901,296.298,66.296,308.374,66.296,321.094z M270.608,429.589
	c-9.995,0-25.096-6.063-32.315-12.976L28.663,215.884c-8.836-8.461-14.283-26.365-11.656-38.313L36,91.184l218.197,233.703
	c10.861,11.634,29.462,19.151,47.386,19.151c5.411,0,10.518-0.696,15.178-2.07l44.508-13.12l98.488,38.006
	c12.625,4.872,23.971,16.671,30.39,30.052h-21.057c-4.512,0-8.17,3.658-8.17,8.17s3.658,8.17,8.17,8.17h26.145
	c0.279,1.998,0.425,3.985,0.425,5.945v10.396H270.608V429.589z M444.58,405.078c0,4.512-3.658,8.17-8.17,8.17H270.611
	c-5.828-0.034-16.784-4.433-20.981-8.406L39.964,204.081c-3.259-3.121-3.372-8.292-0.251-11.552
	c3.12-3.259,8.292-3.373,11.552-0.251l209.567,200.666c1.596,1.318,7.801,3.81,9.866,3.962H436.41
	C440.922,396.908,444.58,400.566,444.58,405.078z"/>
</svg>