<?xml version="1.0" encoding="iso-8859-1"?>
<!-- Uploaded to: SVG Repo, www.svgrepo.com, Generator: SVG Repo Mixer Tools -->
<svg version="1.1" id="Layer_1" xmlns="http://www.w3.org/2000/svg" xmlns:xlink="http://www.w3.org/1999/xlink" 
	 viewBox="0 0 512 512" xml:space="preserve">
<polygon style="fill:#FE676C;" points="8.17,121.028 8.17,379.349 62.638,403.683 40.851,121.028 "/>
<path style="fill:#FF3845;" d="M405.947,311.336c-0.87,0-1.755-0.106-2.637-0.326c-62.578-15.617-107.699-34.297-141.998-58.788
	c-47.128-33.651-71.023-77.791-71.023-131.194H40.851v260.867l386.884,30.136L405.947,311.336z"/>
<path style="fill:#E30026;" d="M409.191,334.862L212.076,229.964L168.501,77.454c-13.229,9.937-21.787,25.756-21.787,43.574
	c0,36.01,8.715,69.262,25.901,98.829c14.885,25.608,36.208,48.429,63.376,67.827c38.897,27.773,88.711,48.619,156.769,65.605
	c6.557,1.636,12.675,3.08,18.591,4.475L409.191,334.862z"/>
<path style="fill:#B70E21;" d="M201.181,121.028V66.56c-12.263,0-23.577,4.055-32.681,10.894v43.574
	c0,60.844,26.966,110.949,80.15,148.924c36.598,26.132,84.065,45.895,149.383,62.196c3.844,0.959,7.543,1.852,11.157,2.712
	l-3.244-34.422C310.153,276.534,201.181,231.926,201.181,121.028z"/>
<path style="fill:#E7D4A7;" d="M405.947,300.44v33.644l54.308,63.434l43.574-18.167C503.83,317.212,466.235,315.487,405.947,300.44z
	"/>
<path style="fill:#F3E6C5;" d="M463.026,351.802c-8.368-6.205-26.12-10.394-46.673-15.243c-3.387-0.798-6.852-1.619-10.406-2.474
	v67.052l65.202-14.512v-7.274C471.149,357.827,465.662,353.757,463.026,351.802z"/>
<polygon style="fill:#F9F3E2;" points="8.17,379.349 8.17,412.393 51.745,424.365 40.851,379.349 "/>
<polygon style="fill:#F3E6C5;" points="316.58,379.349 40.851,379.349 40.851,424.365 338.368,423.287 "/>
<polygon style="fill:#CEBC96;" points="471.149,379.349 449.362,412.393 471.149,445.438 503.83,445.438 503.83,379.349 "/>
<rect x="316.579" y="379.347" style="fill:#E7D4A7;" width="154.57" height="66.088"/>
<polygon style="fill:#F3E6C5;" points="8.17,412.393 8.17,445.438 40.851,445.438 51.745,428.915 40.851,412.393 "/>
<polygon style="fill:#E7D4A7;" points="40.851,412.393 40.851,445.438 316.58,445.438 327.474,412.393 "/>
<circle style="fill:#FFFFFF;" cx="81.702" cy="238.122" r="40.851"/>
<path d="M425.733,297.102c-5.724-1.351-11.642-2.746-17.808-4.286c-43.348-10.818-93.949-26.724-133.226-54.109l0.862-1.185
	c2.653-3.65,1.843-8.761-1.807-11.412c-3.65-2.654-8.761-1.843-11.412,1.807l-0.668,0.918c-7.105-5.869-13.694-12.206-19.638-19.053
	l1.257-0.913c3.65-2.653,4.46-7.762,1.807-11.412c-2.65-3.65-7.762-4.46-11.412-1.807l-1.649,1.198
	c-5.165-7.559-9.586-15.665-13.112-24.378l2.531-0.822c4.291-1.394,6.641-6.003,5.245-10.294c-1.394-4.292-6.007-6.644-10.294-5.245
	l-2.611,0.849c-2.254-8.613-3.693-17.751-4.211-27.455h2.488c4.512,0,8.17-3.658,8.17-8.17c0-4.512-3.658-8.17-8.17-8.17h-2.723
	V66.258c0-2.167-0.861-4.244-2.393-5.777c-1.532-1.533-3.61-2.393-5.777-2.393c-32.102,0-58.676,24.049-62.698,55.074H16.34v-2.844
	c0-4.512-3.658-8.17-8.17-8.17S0,105.805,0,110.317v335.424c0,4.512,3.658,8.17,8.17,8.17h495.66c4.512,0,8.17-3.658,8.17-8.17
	v-66.089C512,317.456,475.816,308.919,425.733,297.102z M495.406,371.482h-81.288v-60.34c2.663,0.636,5.287,1.256,7.863,1.864
	C468.179,323.906,492.705,329.7,495.406,371.482z M252.078,242.042l-22.794,31.374c-12.035-9.652-22.665-20.082-31.87-31.213
	l31.349-22.776C235.569,227.386,243.348,234.925,252.078,242.042z M218.798,206.469l-31.274,22.722
	c-8.682-12.483-15.712-25.738-21.025-39.685l36.829-11.967C207.326,187.663,212.489,197.31,218.798,206.469z M198.209,162.021
	l-36.836,11.968c-3.999-14.219-6.31-29.079-6.915-44.488h38.762C193.759,140.784,195.425,151.628,198.209,162.021z M193.012,75.14
	v38.021h-38.014C158.406,93.834,173.685,78.548,193.012,75.14z M138.102,129.501c0.619,17.189,3.193,33.742,7.678,49.555
	l-2.699,0.877c-4.291,1.394-6.641,6.003-5.245,10.294c1.122,3.453,4.325,5.648,7.768,5.648c0.837,0,1.687-0.13,2.526-0.402
	l2.755-0.895c5.849,15.585,13.652,30.374,23.36,44.26l-2.934,2.132c-3.65,2.653-4.46,7.762-1.808,11.412
	c1.599,2.201,4.091,3.368,6.617,3.368c1.665,0,3.345-0.508,4.795-1.561l3.216-2.337c10.215,12.446,22.061,24.083,35.53,34.807
	l-2.641,3.634c-2.653,3.65-1.843,8.761,1.807,11.412c1.45,1.053,3.131,1.561,4.795,1.561c2.526,0,5.018-1.168,6.617-3.368
	l2.52-3.467c28.43,19.969,62.553,36.43,104.261,50.268c4.284,1.418,8.907-0.9,10.327-5.182c1.421-4.283-0.9-8.907-5.182-10.327
	c-40.068-13.293-72.733-29.006-99.8-47.979l22.764-31.332c32.581,22.711,74.94,40.353,132.646,55.222v64.383H16.34V129.501H138.102z
	 M16.34,420.866H283.9c4.512,0,8.17-3.658,8.17-8.17c0-4.512-3.658-8.17-8.17-8.17H16.34v-16.703h292.07v49.748H16.34V420.866z
	 M324.751,437.57v-49.748H495.66v49.748H324.751z M81.702,287.45c27.03,0,49.021-21.991,49.021-49.021s-21.991-49.021-49.021-49.021
	s-49.021,21.991-49.021,49.021S54.672,287.45,81.702,287.45z M81.702,205.748c18.02,0,32.681,14.661,32.681,32.681
	s-14.661,32.681-32.681,32.681s-32.681-14.661-32.681-32.681S63.682,205.748,81.702,205.748z"/>
</svg>