<?xml version="1.0" encoding="iso-8859-1"?>
<!-- Uploaded to: SVG Repo, www.svgrepo.com, Generator: SVG Repo Mixer Tools -->
<svg height="800px" width="800px" version="1.1" id="Layer_1" xmlns="http://www.w3.org/2000/svg" xmlns:xlink="http://www.w3.org/1999/xlink" 
	 viewBox="0 0 512 512" xml:space="preserve">
<path style="fill:#840C7F;" d="M288.68,471.149c0-18.05-14.631-32.681-32.681-32.681l-10.894,32.681l10.894,32.681
	C274.049,503.83,288.68,489.199,288.68,471.149z"/>
<path style="fill:#D23ACB;" d="M223.319,471.149c0,18.05,14.631,32.681,32.681,32.681v-65.362
	C237.95,438.468,223.319,453.099,223.319,471.149z"/>
<path style="fill:#08A37B;" d="M378.553,447.073c0-18.05-14.631-32.681-32.681-32.681l-10.894,32.681l10.894,32.681
	C363.921,479.754,378.553,465.123,378.553,447.073z"/>
<path style="fill:#12F8BC;" d="M313.191,447.073c0,18.05,14.631,32.681,32.681,32.681v-65.362
	C327.822,414.392,313.191,429.024,313.191,447.073z"/>
<path style="fill:#D0A842;" d="M444.344,381.277c0-18.05-14.631-32.681-32.681-32.681l-10.894,32.681l10.894,32.681
	C429.712,413.957,444.344,399.326,444.344,381.277z"/>
<path style="fill:#FFD875;" d="M378.982,381.277c0,18.05,14.631,32.681,32.681,32.681v-65.362
	C393.614,348.596,378.982,363.227,378.982,381.277z"/>
<path style="fill:#D0A842;" d="M108.936,102.582c0-18.05-14.631-32.681-32.681-32.681l-10.894,32.681l10.894,32.681
	C94.304,135.263,108.936,120.63,108.936,102.582z"/>
<path style="fill:#FFD875;" d="M43.574,102.582c0,18.05,14.631,32.681,32.681,32.681V69.901
	C58.205,69.901,43.574,84.532,43.574,102.582z"/>
<path style="fill:#08A37B;" d="M108.936,196.993c0-18.05-14.631-32.681-32.681-32.681l-10.894,32.681l10.894,32.681
	C94.304,229.673,108.936,215.042,108.936,196.993z"/>
<path style="fill:#12F8BC;" d="M43.574,196.993c0,18.05,14.631,32.681,32.681,32.681v-65.362
	C58.205,164.312,43.574,178.944,43.574,196.993z"/>
<path style="fill:#840C7F;" d="M108.936,291.404c0-18.05-14.631-32.681-32.681-32.681l-10.894,32.681l10.894,32.681
	C94.304,324.085,108.936,309.454,108.936,291.404z"/>
<path style="fill:#D23ACB;" d="M43.574,291.404c0,18.05,14.631,32.681,32.681,32.681v-65.362
	C58.205,258.723,43.574,273.355,43.574,291.404z"/>
<path style="fill:#D0A842;" d="M133.012,381.277c0-18.05-14.631-32.681-32.681-32.681l-10.894,32.681l10.894,32.681
	C118.379,413.957,133.012,399.326,133.012,381.277z"/>
<path style="fill:#FFD875;" d="M67.65,381.277c0,18.05,14.631,32.681,32.681,32.681v-65.362
	C82.281,348.596,67.65,363.227,67.65,381.277z"/>
<path style="fill:#08A37B;" d="M198.802,447.073c0-18.05-14.631-32.681-32.681-32.681l-10.894,32.681l10.894,32.681
	C184.171,479.754,198.802,465.123,198.802,447.073z"/>
<path style="fill:#12F8BC;" d="M133.441,447.073c0,18.05,14.631,32.681,32.681,32.681v-65.362
	C148.072,414.392,133.441,429.024,133.441,447.073z"/>
<circle style="fill:#F95FF2;" cx="255.999" cy="364.784" r="21.148"/>
<circle style="fill:#E7C05C;" cx="296.85" cy="353.836" r="21.148"/>
<circle style="fill:#D23ACB;" cx="326.753" cy="323.933" r="21.148"/>
<circle style="fill:#FFD875;" cx="174.297" cy="29.318" r="21.148"/>
<circle style="fill:#F95FF2;" cx="174.297" cy="71.612" r="21.148"/>
<circle style="fill:#FFD875;" cx="174.297" cy="113.904" r="21.148"/>
<circle style="fill:#F95FF2;" cx="174.297" cy="156.204" r="21.148"/>
<circle style="fill:#FFD875;" cx="174.297" cy="198.493" r="21.148"/>
<circle style="fill:#F95FF2;" cx="174.297" cy="240.792" r="21.148"/>
<circle style="fill:#E7C05C;" cx="337.702" cy="29.318" r="21.148"/>
<circle style="fill:#D23ACB;" cx="337.702" cy="71.612" r="21.148"/>
<circle style="fill:#E7C05C;" cx="337.702" cy="113.904" r="21.148"/>
<circle style="fill:#D23ACB;" cx="337.702" cy="156.204" r="21.148"/>
<circle style="fill:#E7C05C;" cx="337.702" cy="198.493" r="21.148"/>
<circle style="fill:#D23ACB;" cx="337.702" cy="240.792" r="21.148"/>
<circle style="fill:#FFD875;" cx="174.297" cy="283.082" r="21.148"/>
<circle style="fill:#F95FF2;" cx="185.245" cy="323.933" r="21.148"/>
<circle style="fill:#FFD875;" cx="215.148" cy="353.836" r="21.148"/>
<circle style="fill:#E7C05C;" cx="337.702" cy="283.082" r="21.148"/>
<path style="fill:#840C7F;" d="M108.936,8.17H76.255l-10.894,16.34l10.894,16.34C94.304,40.851,108.936,26.22,108.936,8.17z"/>
<path style="fill:#D23ACB;" d="M43.574,8.17c0,18.05,14.631,32.681,32.681,32.681V8.17H43.574z"/>
<path style="fill:#840C7F;" d="M468.425,8.17h-32.681l-10.894,16.34l10.894,16.34C453.794,40.851,468.425,26.22,468.425,8.17z"/>
<path style="fill:#D23ACB;" d="M403.063,8.17c0,18.05,14.631,32.681,32.681,32.681V8.17H403.063z"/>
<path style="fill:#D0A842;" d="M468.425,102.582c0-18.05-14.631-32.681-32.681-32.681l-10.894,32.681l10.894,32.681
	C453.794,135.263,468.425,120.63,468.425,102.582z"/>
<path style="fill:#FFD875;" d="M403.063,102.582c0,18.05,14.631,32.681,32.681,32.681V69.901
	C417.694,69.901,403.063,84.532,403.063,102.582z"/>
<path style="fill:#08A37B;" d="M468.425,196.993c0-18.05-14.631-32.681-32.681-32.681l-10.894,32.681l10.894,32.681
	C453.794,229.673,468.425,215.042,468.425,196.993z"/>
<path style="fill:#12F8BC;" d="M403.063,196.993c0,18.05,14.631,32.681,32.681,32.681v-65.362
	C417.694,164.312,403.063,178.944,403.063,196.993z"/>
<path style="fill:#840C7F;" d="M468.425,291.404c0-18.05-14.631-32.681-32.681-32.681l-10.894,32.681l10.894,32.681
	C453.794,324.085,468.425,309.454,468.425,291.404z"/>
<path style="fill:#D23ACB;" d="M403.063,291.404c0,18.05,14.631,32.681,32.681,32.681v-65.362
	C417.694,258.723,403.063,273.355,403.063,291.404z"/>
<path d="M476.595,102.582c0-19.728-14.057-36.233-32.681-40.029V48.199c18.624-3.795,32.681-20.3,32.681-40.029
	c0-4.513-3.657-8.17-8.17-8.17c-4.513,0-8.17,3.657-8.17,8.17c0,13.515-10.996,24.511-24.511,24.511
	c-13.515,0-24.511-10.996-24.511-24.511c0-4.513-3.657-8.17-8.17-8.17c-4.513,0-8.17,3.657-8.17,8.17
	c0,19.728,14.057,36.233,32.681,40.029v14.353c-18.624,3.795-32.681,20.3-32.681,40.029s14.057,36.233,32.681,40.029v14.352
	c-18.624,3.795-32.681,20.3-32.681,40.029s14.057,36.233,32.681,40.029v14.353c-18.624,3.795-32.681,20.3-32.681,40.029
	c0,18.128,11.872,33.527,28.247,38.852c-0.863,3.719-1.852,7.416-2.963,11.077c-2.783-0.595-5.625-0.913-8.484-0.913
	c-14.565,0-28.133,7.829-35.409,20.431c-9.055,15.682-6.486,34.931,5.002,47.73c-2.617,2.796-5.328,5.508-8.124,8.124
	c-7.405-6.639-17.114-10.495-27.321-10.495c-7.135,0-14.187,1.894-20.395,5.478c-15.7,9.065-23.1,27.049-19.522,43.894
	c-3.658,1.111-7.354,2.099-11.072,2.962c-5.325-16.372-20.724-28.244-38.852-28.244s-33.527,11.872-38.852,28.247
	c-3.714-0.861-7.404-1.849-11.058-2.958c1.338-6.24,1.196-12.75-0.503-19.093c-2.824-10.541-9.583-19.35-19.033-24.806
	c-6.207-3.584-13.26-5.478-20.394-5.478c-10.207,0-19.916,3.856-27.321,10.495c-2.796-2.617-5.508-5.329-8.124-8.124
	c11.488-12.799,14.056-32.048,5.001-47.73c-7.276-12.602-20.844-20.431-35.408-20.431c-2.858,0-5.701,0.318-8.483,0.913
	c-1.111-3.659-2.1-7.356-2.964-11.077c16.374-5.325,28.247-20.724,28.247-38.852c0-19.728-14.057-36.233-32.681-40.029v-14.353
	c18.624-3.795,32.681-20.3,32.681-40.029s-14.057-36.233-32.681-40.029v-14.352c18.624-3.795,32.681-20.3,32.681-40.029
	S103.05,66.35,84.426,62.554V48.199c18.624-3.795,32.681-20.3,32.681-40.029c0-4.513-3.658-8.17-8.17-8.17
	c-4.512,0-8.17,3.657-8.17,8.17c-0.001,13.515-10.996,24.511-24.512,24.511S51.744,21.685,51.744,8.17c0-4.513-3.658-8.17-8.17-8.17
	s-8.17,3.657-8.17,8.17c0,19.728,14.057,36.233,32.681,40.029v14.353c-18.624,3.795-32.681,20.3-32.681,40.029
	s14.057,36.233,32.681,40.029v14.352c-18.624,3.795-32.681,20.3-32.681,40.029s14.057,36.233,32.681,40.029v14.353
	c-18.624,3.795-32.681,20.3-32.681,40.029c0,21.264,16.333,38.777,37.111,40.672c1.179,5.332,2.596,10.628,4.24,15.846
	c-7.797,5.491-13.38,13.457-15.877,22.782c-2.825,10.54-1.375,21.548,4.081,30.998c7.276,12.602,20.844,20.431,35.409,20.431
	c5.901,0,11.738-1.315,17.095-3.791c3.69,4.024,7.562,7.897,11.586,11.588c-4.023,8.666-4.884,18.371-2.381,27.712
	c2.824,10.54,9.583,19.349,19.033,24.805c6.208,3.584,13.26,5.478,20.395,5.478c13.303,0,25.76-6.546,33.365-17.282
	c5.225,1.646,10.527,3.065,15.865,4.246C217.223,495.667,234.735,512,255.999,512s38.777-16.333,40.672-37.111
	c5.338-1.181,10.641-2.6,15.865-4.246c7.605,10.736,20.061,17.282,33.365,17.282c7.134,0,14.187-1.894,20.395-5.478
	c18.428-10.639,25.424-33.563,16.65-52.513c4.025-3.692,7.899-7.566,11.591-11.592c5.357,2.476,11.194,3.791,17.095,3.791
	c14.565,0,28.133-7.829,35.409-20.431c10.631-18.413,5.244-41.744-11.798-53.775c1.645-5.22,3.062-10.518,4.241-15.849
	c20.779-1.895,37.111-19.408,37.111-40.672c0-19.728-14.057-36.233-32.681-40.029v-14.353c18.624-3.795,32.681-20.3,32.681-40.029
	s-14.057-36.233-32.681-40.029v-14.352C462.538,138.815,476.595,122.31,476.595,102.582z M411.233,102.582
	c0-13.515,10.996-24.511,24.511-24.511c13.515,0,24.511,10.996,24.511,24.511s-10.996,24.511-24.511,24.511
	C422.229,127.093,411.233,116.097,411.233,102.582z M51.744,102.582c0-13.515,10.995-24.511,24.511-24.511
	s24.511,10.996,24.511,24.511s-10.995,24.511-24.511,24.511S51.744,116.097,51.744,102.582z M51.744,196.993
	c0-13.515,10.995-24.511,24.511-24.511s24.511,10.996,24.511,24.511c0,13.515-10.995,24.511-24.511,24.511
	S51.744,210.507,51.744,196.993z M51.744,291.404c0-13.515,10.995-24.511,24.511-24.511s24.511,10.996,24.511,24.511
	c0,12.724-9.748,23.212-22.167,24.396c-0.024,0.002-0.048,0.003-0.072,0.005c-0.748,0.069-1.505,0.109-2.272,0.109
	C62.739,315.915,51.744,304.919,51.744,291.404z M79.109,393.532c-3.274-5.67-4.143-12.276-2.449-18.599
	c1.694-6.324,5.75-11.609,11.42-14.883c3.727-2.153,7.955-3.29,12.225-3.29c8.745,0,16.891,4.698,21.257,12.261
	c6.355,11.008,3.171,24.947-6.966,32.188c-0.029,0.02-0.059,0.04-0.088,0.061c-0.614,0.435-1.252,0.849-1.916,1.233
	c-3.727,2.153-7.955,3.29-12.225,3.29C91.62,405.793,83.475,401.094,79.109,393.532z M166.097,471.584
	c-4.27,0-8.498-1.137-12.225-3.29c-5.67-3.274-9.726-8.559-11.42-14.883c-1.695-6.325-0.825-12.929,2.449-18.599
	c4.367-7.562,12.512-12.262,21.259-12.262c4.27,0,8.497,1.138,12.224,3.29c5.67,3.274,9.726,8.559,11.42,14.883
	c1.489,5.557,0.996,11.328-1.366,16.494c-0.014,0.031-0.032,0.059-0.046,0.089c-0.316,0.683-0.657,1.357-1.037,2.017
	C182.988,466.886,174.842,471.584,166.097,471.584z M255.999,495.66c-13.516,0-24.511-10.996-24.511-24.511
	c0-0.763,0.04-1.515,0.108-2.26c0.003-0.033,0.005-0.064,0.008-0.096c1.191-12.413,11.675-22.154,24.395-22.154
	c12.72,0,23.206,9.741,24.395,22.155c0.002,0.032,0.004,0.062,0.008,0.094c0.069,0.745,0.109,1.499,0.109,2.262
	C280.51,484.664,269.514,495.66,255.999,495.66z M358.127,468.295c-3.728,2.153-7.954,3.29-12.225,3.29
	c-8.745,0-16.892-4.698-21.258-12.261c-0.38-0.658-0.721-1.328-1.033-2.006c-0.01-0.021-0.02-0.041-0.029-0.062
	c-5.198-11.352-0.992-25.05,10.034-31.416c3.727-2.151,7.954-3.29,12.225-3.29c8.745,0,16.891,4.698,21.258,12.262
	C373.855,446.517,369.831,461.537,358.127,468.295z M432.89,393.532c-4.366,7.562-12.511,12.261-21.258,12.261
	c-4.27,0-8.497-1.137-12.225-3.29c-0.668-0.386-1.308-0.802-1.926-1.24c-0.023-0.015-0.046-0.031-0.068-0.047
	c-10.146-7.239-13.336-21.185-6.978-32.196c4.366-7.562,12.511-12.261,21.258-12.261c4.271,0,8.498,1.137,12.226,3.29
	C435.623,366.808,439.647,381.828,432.89,393.532z M460.255,291.404c0,13.515-10.996,24.511-24.511,24.511
	c-0.769,0-1.528-0.04-2.279-0.11c-0.019-0.001-0.038-0.003-0.057-0.004c-12.423-1.181-22.175-11.669-22.175-24.396
	c0-13.515,10.996-24.511,24.511-24.511C449.259,266.894,460.255,277.89,460.255,291.404z M460.255,196.993
	c0,13.515-10.996,24.511-24.511,24.511c-13.515,0-24.511-10.996-24.511-24.511c0-13.515,10.996-24.511,24.511-24.511
	C449.259,172.482,460.255,183.478,460.255,196.993z"/>
<path d="M144.979,283.084c0,11.041,6.136,20.671,15.175,25.671c-1.41,2.337-2.503,4.884-3.23,7.593
	c-2.026,7.563-0.987,15.464,2.928,22.246c5.221,9.045,14.958,14.663,25.409,14.663c0.19,0,0.378-0.015,0.568-0.019
	c-0.052,2.729,0.273,5.481,0.999,8.19c2.027,7.565,6.878,13.887,13.661,17.802c4.454,2.572,9.517,3.93,14.639,3.93
	c5.435,0,10.67-1.531,15.184-4.26c4.995,9.055,14.636,15.204,25.687,15.204c11.053,0,20.692-6.149,25.687-15.204
	c4.514,2.73,9.749,4.26,15.185,4.26c5.121,0,10.184-1.358,14.639-3.93c6.782-3.915,11.633-10.237,13.659-17.802
	c0.726-2.709,1.051-5.461,0.999-8.19c0.19,0.003,0.378,0.019,0.568,0.019c10.452,0,20.188-5.618,25.409-14.663
	c3.916-6.782,4.956-14.682,2.928-22.246c-0.726-2.709-1.82-5.256-3.229-7.593c9.038-5,15.174-14.631,15.174-25.671
	c0-8.304-3.476-15.808-9.044-21.147c5.567-5.34,9.044-12.842,9.044-21.148c0-8.304-3.476-15.808-9.043-21.147
	c5.567-5.339,9.043-12.842,9.043-21.147c0-8.304-3.476-15.808-9.044-21.148c5.567-5.339,9.044-12.842,9.044-21.147
	c0-8.304-3.476-15.808-9.044-21.148c5.567-5.339,9.044-12.842,9.044-21.147s-3.476-15.808-9.044-21.147
	c5.567-5.34,9.044-12.842,9.044-21.148s-3.476-15.808-9.044-21.147c5.567-5.34,9.044-12.842,9.044-21.148
	C367.018,13.151,353.868,0,337.702,0c-16.166,0-29.317,13.151-29.317,29.317c0,8.304,3.476,15.808,9.044,21.148
	c-5.567,5.339-9.044,12.842-9.044,21.147s3.476,15.808,9.044,21.148c-5.567,5.339-9.044,12.842-9.044,21.147
	s3.476,15.808,9.044,21.147c-5.567,5.34-9.044,12.842-9.044,21.148c0,8.305,3.476,15.808,9.044,21.147
	c-5.567,5.34-9.044,12.842-9.044,21.148c0,8.304,3.476,15.808,9.043,21.147c-5.567,5.339-9.043,12.842-9.043,21.147
	c0,8.304,3.476,15.808,9.044,21.148c-5.567,5.339-9.044,12.842-9.044,21.147c0,5.557,1.553,10.757,4.25,15.19
	c-4.617,2.541-8.555,6.304-11.267,11.003c-2.72,4.71-4.049,9.961-3.93,15.263c-0.203-0.004-0.403-0.021-0.606-0.021
	c-5.122,0-10.184,1.359-14.639,3.932c-4.709,2.719-8.485,6.6-11.033,11.25c-4.426-2.684-9.615-4.232-15.16-4.232
	c-5.544,0-10.733,1.547-15.16,4.232c-2.548-4.65-6.324-8.532-11.033-11.25c-4.454-2.572-9.517-3.932-14.639-3.932
	c-0.208,0-0.414,0.016-0.621,0.021c0.115-5.182-1.138-10.457-3.914-15.263c-2.713-4.698-6.651-8.461-11.268-11.003
	c2.696-4.433,4.25-9.633,4.25-15.19c0-8.304-3.476-15.808-9.044-21.147c5.567-5.34,9.044-12.842,9.044-21.148
	c0-8.304-3.476-15.808-9.044-21.147c5.567-5.339,9.044-12.842,9.044-21.147c0-8.304-3.476-15.808-9.044-21.148
	c5.567-5.339,9.044-12.842,9.044-21.147c0-8.304-3.476-15.808-9.044-21.148c5.567-5.339,9.044-12.842,9.044-21.147
	s-3.476-15.808-9.044-21.147c5.567-5.34,9.044-12.842,9.044-21.148s-3.476-15.808-9.044-21.147
	c5.567-5.34,9.044-12.842,9.044-21.148C203.615,13.151,190.463,0,174.297,0s-29.318,13.151-29.318,29.317
	c0,8.304,3.476,15.808,9.044,21.148c-5.567,5.339-9.044,12.842-9.044,21.147s3.476,15.808,9.044,21.148
	c-5.567,5.339-9.044,12.842-9.044,21.147s3.476,15.808,9.044,21.147c-5.567,5.34-9.044,12.842-9.044,21.148
	c0,8.305,3.476,15.808,9.044,21.147c-5.567,5.34-9.044,12.842-9.044,21.148c0,8.304,3.476,15.808,9.044,21.147
	c-5.567,5.339-9.044,12.842-9.044,21.147c0,8.304,3.476,15.808,9.044,21.148C148.457,267.276,144.979,274.78,144.979,283.084z
	 M174.004,330.423c-1.733-3.002-2.193-6.499-1.296-9.847c0.898-3.348,3.045-6.147,6.046-7.879c0.972-0.561,2.009-0.989,3.08-1.281
	c0.027-0.008,0.053-0.015,0.081-0.023c1.078-0.288,2.191-0.437,3.308-0.437c4.632,0,8.946,2.487,11.259,6.492
	c3.577,6.196,1.447,14.149-4.751,17.726c-1.974,1.141-4.21,1.743-6.469,1.743C180.631,336.916,176.317,334.427,174.004,330.423z
	 M337.995,330.423c-2.312,4.006-6.625,6.493-11.259,6.493c-2.257,0-4.494-0.602-6.469-1.743c-3.002-1.733-5.151-4.532-6.047-7.879
	s-0.436-6.844,1.296-9.847c2.312-4.004,6.625-6.492,11.257-6.492c1.119,0,2.231,0.149,3.309,0.437
	c0.027,0.008,0.053,0.015,0.079,0.023c1.071,0.293,2.108,0.72,3.08,1.282c3.002,1.733,5.149,4.532,6.047,7.879
	C340.188,323.925,339.727,327.422,337.995,330.423z M324.725,29.317c0-7.155,5.822-12.976,12.976-12.976
	c7.155,0,12.976,5.822,12.976,12.976c0,7.156-5.822,12.978-12.976,12.978C330.547,42.294,324.725,36.473,324.725,29.317z
	 M324.725,71.611c0-7.155,5.822-12.976,12.976-12.976c7.155,0,12.976,5.822,12.976,12.976c0,7.156-5.822,12.978-12.976,12.978
	C330.547,84.589,324.725,78.768,324.725,71.611z M324.725,113.907c0-7.155,5.822-12.976,12.976-12.976
	c7.155,0,12.976,5.822,12.976,12.976s-5.822,12.976-12.976,12.976C330.547,126.883,324.725,121.062,324.725,113.907z
	 M324.725,156.201c0-7.156,5.822-12.978,12.976-12.978c7.155,0,12.976,5.822,12.976,12.978c0,7.155-5.822,12.976-12.976,12.976
	C330.547,169.178,324.725,163.356,324.725,156.201z M324.725,198.496c0-7.156,5.822-12.978,12.976-12.978
	c7.155,0,12.976,5.822,12.976,12.978c0,7.155-5.822,12.976-12.976,12.976C330.547,211.472,324.725,205.651,324.725,198.496z
	 M324.725,240.789c0-7.155,5.822-12.976,12.976-12.976c7.155,0,12.976,5.822,12.976,12.976c0,7.156-5.822,12.978-12.976,12.978
	C330.547,253.767,324.725,247.945,324.725,240.789z M350.678,283.084c0,7.156-5.822,12.978-12.976,12.978
	c-7.155,0-12.976-5.822-12.976-12.978c0-7.155,5.822-12.977,12.976-12.977C344.856,270.107,350.678,275.929,350.678,283.084z
	 M284.315,350.481c0.898-3.348,3.045-6.147,6.048-7.879c1.974-1.141,4.209-1.743,6.468-1.743c3.457,0,6.734,1.388,9.136,3.754
	c0.029,0.029,0.058,0.059,0.086,0.088c0.781,0.784,1.47,1.67,2.035,2.65c1.733,3.002,2.194,6.499,1.296,9.847
	s-3.045,6.147-6.047,7.879c-1.975,1.139-4.21,1.742-6.469,1.742c-4.633,0-8.947-2.487-11.259-6.492
	C283.879,357.327,283.419,353.83,284.315,350.481z M255.999,351.809c7.155,0,12.976,5.822,12.976,12.976
	c0,7.156-5.822,12.978-12.976,12.978c-7.156,0-12.978-5.822-12.978-12.978C243.022,357.631,248.843,351.809,255.999,351.809z
	 M221.637,342.602c3.002,1.733,5.149,4.532,6.047,7.879c0.897,3.348,0.436,6.844-1.296,9.847c-2.312,4.004-6.626,6.492-11.257,6.492
	c-2.257,0-4.495-0.602-6.469-1.742c-3.002-1.733-5.149-4.532-6.047-7.879c-0.897-3.348-0.437-6.844,1.296-9.847
	c2.313-4.006,6.626-6.493,11.257-6.493C217.425,340.859,219.663,341.461,221.637,342.602z M161.32,29.317
	c0-7.155,5.822-12.976,12.978-12.976s12.978,5.822,12.978,12.976c0,7.156-5.822,12.978-12.978,12.978S161.32,36.473,161.32,29.317z
	 M161.32,71.611c0-7.155,5.822-12.976,12.978-12.976s12.978,5.822,12.978,12.976c0,7.156-5.822,12.978-12.978,12.978
	S161.32,78.768,161.32,71.611z M161.32,113.907c0-7.155,5.822-12.976,12.978-12.976s12.978,5.822,12.978,12.976
	s-5.822,12.976-12.978,12.976S161.32,121.062,161.32,113.907z M161.32,156.201c0-7.156,5.822-12.978,12.978-12.978
	s12.978,5.822,12.978,12.978c0,7.155-5.822,12.976-12.978,12.976S161.32,163.356,161.32,156.201z M161.32,198.496
	c0-7.156,5.822-12.978,12.978-12.978s12.978,5.822,12.978,12.978c0,7.155-5.822,12.976-12.978,12.976S161.32,205.651,161.32,198.496
	z M161.32,240.789c0-7.155,5.822-12.976,12.978-12.976s12.978,5.822,12.978,12.976c0,7.156-5.822,12.978-12.978,12.978
	S161.32,247.945,161.32,240.789z M187.275,283.084c0,7.156-5.822,12.978-12.978,12.978s-12.978-5.822-12.978-12.978
	c0-7.155,5.822-12.977,12.978-12.977S187.275,275.929,187.275,283.084z"/>
</svg>