<?xml version="1.0" encoding="iso-8859-1"?>
<!-- Uploaded to: SVG Repo, www.svgrepo.com, Generator: SVG Repo Mixer Tools -->
<svg height="800px" width="800px" version="1.1" id="Layer_1" xmlns="http://www.w3.org/2000/svg" xmlns:xlink="http://www.w3.org/1999/xlink" 
	 viewBox="0 0 512 512" xml:space="preserve">
<path style="fill:#2C6991;" d="M284.522,38.116h-56.465c-16.112,0-29.293,13.182-29.293,29.293v83.877h114.471V66.829
	C313.235,50.971,300.38,38.116,284.522,38.116z"/>
<path style="fill:#528FB3;" d="M255.999,38.116h-27.943c-16.112,0-29.293,13.182-29.293,29.293v83.877h57.235V38.116z"/>
<path style="fill:#245475;" d="M461.206,155.372c-10.776,0-19.832,8.921-19.833,19.327H70.626c0-10.406-9.056-19.327-19.833-19.327
	s-19.833,8.921-19.833,19.697v154.275c0,79.815,65.576,144.54,145.392,144.54h159.295c79.815,0,145.392-64.725,145.392-144.54
	V175.069C481.038,164.293,471.982,155.372,461.206,155.372z"/>
<path style="fill:#2C6991;" d="M255.999,174.699H70.626c0-10.406-9.056-19.327-19.833-19.327s-19.833,8.921-19.833,19.697v154.275
	c0,79.815,65.576,144.54,145.392,144.54h79.647V174.699H255.999z"/>
<path style="fill:#ABA8AB;" d="M475.553,162.024c-53.031-60.448-129.565-95.293-209.978-95.293h-19.149
	c-80.414,0-156.948,34.845-209.978,95.293c-5.052,5.76-6.267,13.844-3.106,20.822c3.161,6.977,10.112,11.364,17.774,11.364h409.771
	c7.66,0,14.612-4.386,17.774-11.364C481.823,175.869,480.605,167.784,475.553,162.024z"/>
<path style="fill:#CCCCCC;" d="M255.999,66.732h-9.574c-80.414,0-156.948,34.845-209.978,95.293
	c-5.052,5.76-6.267,13.844-3.106,20.822c3.161,6.978,10.112,11.364,17.774,11.364h204.886V66.732H255.999z"/>
<path style="fill:#2C6991;" d="M492.488,165.594H19.512C8.736,165.594,0,174.33,0,185.106s8.736,19.512,19.512,19.512h472.976
	c10.776,0,19.512-8.736,19.512-19.512S503.264,165.594,492.488,165.594z"/>
<path style="fill:#528FB3;" d="M255.999,165.594H19.512C8.736,165.594,0,174.33,0,185.106s8.736,19.512,19.512,19.512h236.487
	V165.594z"/>
</svg>