<?xml version="1.0" encoding="iso-8859-1"?>
<!-- Uploaded to: SVG Repo, www.svgrepo.com, Generator: SVG Repo Mixer Tools -->
<svg height="800px" width="800px" version="1.1" id="Layer_1" xmlns="http://www.w3.org/2000/svg" xmlns:xlink="http://www.w3.org/1999/xlink" 
	 viewBox="0 0 512 512" xml:space="preserve">
<g transform="translate(0 -1)">
	<path style="fill:#285680;" d="M308.966,1C294.25,1,274.759,9.828,256,9.828S217.75,1,203.034,1c0,0-6.621,86.802,52.966,123.586
		C315.586,87.802,308.966,1,308.966,1"/>
	<path style="fill:#4482C3;" d="M105.931,36.31C121.009,26.75,189.793,5.414,203.034,1c0,0-6.621,86.802,52.966,123.586
		C315.586,87.802,308.966,1,308.966,1c13.241,4.414,82.026,25.75,97.103,35.31s55.614,76.138,61.793,123.586
		c0,0-26.483,35.31-70.621,35.31l-17.655-52.966c0,0-35.31,71.724-35.31,141.241c0,0,35.31,137.198,35.31,211.862
		c0,0-76.871,17.655-123.586,17.655s-123.586-17.655-123.586-17.655c0-74.664,35.31-211.862,35.31-211.862
		c0-69.517-35.31-141.241-35.31-141.241l-17.655,52.966c-44.138,0-70.621-35.31-70.621-35.31
		C50.317,112.448,90.854,45.871,105.931,36.31"/>
</g>
</svg>