<svg xmlns="http://www.w3.org/2000/svg" xmlns:xlink="http://www.w3.org/1999/xlink" width="500" zoomAndPan="magnify" viewBox="0 0 375 374.999991" height="500" preserveAspectRatio="xMidYMid meet" version="1.0"><defs><g/><clipPath id="be05ac79a6"><path d="M 77.824219 10.601562 L 305.824219 10.601562 L 305.824219 160.601562 L 77.824219 160.601562 Z M 77.824219 10.601562 " clip-rule="nonzero"/></clipPath></defs><g clip-path="url(#be05ac79a6)"><path fill="#ff914d" d="M 141.945312 126.804688 L 142.96875 126.804688 L 192.515625 16.628906 L 192.515625 94.359375 L 184.703125 94.359375 C 171.636719 94.359375 157.542969 101.914062 157.542969 116.488281 C 157.542969 120.269531 158.566406 123.789062 160.582031 126.804688 L 161.832031 126.804688 C 160.582031 124.277344 160.070312 121.007812 160.070312 118.507812 C 160.070312 104.160156 174.648438 102.65625 185.46875 102.65625 L 192.515625 102.65625 L 192.515625 141.378906 C 192.515625 154.730469 188.992188 160.011719 180.441406 160.011719 L 180.441406 160.753906 L 219.675781 160.753906 L 219.675781 160.011719 C 211.125 160.011719 207.859375 154.730469 207.859375 141.378906 L 207.859375 102.65625 L 253.628906 102.65625 C 263.683594 102.65625 275.757812 101.402344 278.769531 90.070312 L 278.769531 141.378906 C 278.769531 154.730469 275.503906 160.011719 266.953125 160.011719 L 266.953125 160.753906 L 306.1875 160.753906 L 306.1875 160.011719 C 297.636719 160.011719 294.113281 154.730469 294.113281 141.378906 L 294.113281 54.359375 C 294.113281 41.03125 297.636719 35.75 306.1875 35.75 L 306.1875 35.007812 L 266.953125 35.007812 L 266.953125 35.75 C 275.503906 35.75 278.769531 41.03125 278.769531 54.359375 L 278.769531 83.789062 C 278.769531 94.359375 263.175781 94.359375 256.15625 94.359375 L 207.859375 94.359375 L 207.859375 29.980469 C 207.859375 16.628906 211.378906 11.371094 219.933594 11.371094 L 219.933594 10.605469 L 192.515625 10.605469 L 149.503906 106.433594 L 106.492188 10.605469 L 77.824219 10.605469 L 77.824219 11.371094 C 86.375 11.371094 89.644531 16.628906 89.644531 29.980469 L 89.644531 117 C 89.644531 130.324219 86.375 135.609375 77.824219 135.609375 L 77.824219 136.351562 L 104.242188 136.351562 L 104.242188 135.609375 C 95.691406 135.609375 92.167969 130.324219 92.167969 117 L 92.167969 16.144531 Z M 141.945312 126.804688 " fill-opacity="1" fill-rule="nonzero"/></g><g fill="#000000" fill-opacity="1"><g transform="translate(4.394535, 220.519555)"><g><path d="M 37.328125 -47.671875 L 55.515625 -47.671875 L 55.515625 -46.375 L 51.765625 -46.375 L 51.765625 -1.296875 L 55.515625 -1.296875 L 55.515625 0 L 34.734375 0 L 34.734375 -1.296875 L 38.484375 -1.296875 L 38.484375 -43.859375 L 38.203125 -43.859375 L 28 0 L 19.484375 0 L 7.484375 -44.0625 L 7.21875 -44.0625 L 7.21875 -1.296875 L 10.96875 -1.296875 L 10.96875 0 L 1.703125 0 L 1.703125 -1.296875 L 5.453125 -1.296875 L 5.453125 -46.375 L 1.703125 -46.375 L 1.703125 -47.671875 L 20.09375 -47.671875 L 29.15625 -12.59375 Z M 37.328125 -47.671875 "/></g></g></g><g fill="#000000" fill-opacity="1"><g transform="translate(61.596612, 220.519555)"><g><path d="M 17.03125 -16 L 19 -16 L 19 -21.25 C 19 -25.5625 18.757812 -28.453125 18.28125 -29.921875 C 17.8125 -31.398438 16.894531 -32.140625 15.53125 -32.140625 C 14.707031 -32.140625 13.96875 -31.925781 13.3125 -31.5 C 12.65625 -31.070312 12.328125 -30.484375 12.328125 -29.734375 C 12.328125 -28.984375 12.460938 -28.222656 12.734375 -27.453125 L 14.4375 -27.453125 C 14.800781 -26.492188 14.984375 -25.34375 14.984375 -24 C 14.984375 -22.664062 14.414062 -21.507812 13.28125 -20.53125 C 12.144531 -19.5625 10.710938 -19.078125 8.984375 -19.078125 C 5.085938 -19.078125 3.140625 -20.957031 3.140625 -24.71875 C 3.140625 -30.300781 7.882812 -33.09375 17.375 -33.09375 C 22.769531 -33.09375 26.5 -32.171875 28.5625 -30.328125 C 30.632812 -28.492188 31.671875 -25.128906 31.671875 -20.234375 L 31.671875 -6.40625 C 31.671875 -4.039062 32.328125 -2.859375 33.640625 -2.859375 C 35.191406 -2.859375 36.101562 -5.195312 36.375 -9.875 L 37.390625 -9.8125 C 37.210938 -5.8125 36.460938 -3.0625 35.140625 -1.5625 C 33.828125 -0.0625 31.671875 0.6875 28.671875 0.6875 C 23.222656 0.6875 20.09375 -0.992188 19.28125 -4.359375 C 18.6875 -2.628906 17.796875 -1.351562 16.609375 -0.53125 C 15.429688 0.28125 13.707031 0.6875 11.4375 0.6875 C 4.71875 0.6875 1.359375 -2.0625 1.359375 -7.5625 C 1.359375 -10.78125 2.640625 -12.988281 5.203125 -14.1875 C 7.773438 -15.394531 11.71875 -16 17.03125 -16 Z M 14.296875 -7.625 C 14.296875 -5.269531 14.421875 -3.75 14.671875 -3.0625 C 14.921875 -2.382812 15.394531 -2.046875 16.09375 -2.046875 C 16.800781 -2.046875 17.460938 -2.625 18.078125 -3.78125 C 18.691406 -4.9375 19 -6.535156 19 -8.578125 L 19 -14.921875 L 18.53125 -14.921875 C 15.707031 -14.921875 14.296875 -12.851562 14.296875 -8.71875 Z M 14.296875 -7.625 "/></g></g></g><g fill="#000000" fill-opacity="1"><g transform="translate(98.982249, 220.519555)"><g><path d="M 23.421875 -30.515625 C 21.742188 -30.515625 20.269531 -29.421875 19 -27.234375 C 17.726562 -25.054688 17.09375 -22.472656 17.09375 -19.484375 L 17.09375 -1.21875 L 21.9375 -1.21875 L 21.9375 0 L 0.6875 0 L 0.6875 -1.21875 L 4.421875 -1.21875 L 4.421875 -31.1875 L 0.6875 -31.1875 L 0.6875 -32.421875 L 17.09375 -32.421875 L 17.09375 -25.875 C 17.6875 -28.195312 18.820312 -29.976562 20.5 -31.21875 C 22.175781 -32.46875 24.082031 -33.09375 26.21875 -33.09375 C 28.351562 -33.09375 30.085938 -32.488281 31.421875 -31.28125 C 32.765625 -30.082031 33.4375 -28.382812 33.4375 -26.1875 C 33.4375 -23.988281 32.9375 -22.296875 31.9375 -21.109375 C 30.9375 -19.929688 29.40625 -19.34375 27.34375 -19.34375 C 25.28125 -19.34375 23.757812 -20.019531 22.78125 -21.375 C 21.800781 -22.738281 21.675781 -24.628906 22.40625 -27.046875 L 24.859375 -27.046875 C 25.992188 -29.359375 25.515625 -30.515625 23.421875 -30.515625 Z M 23.421875 -30.515625 "/></g></g></g><g fill="#000000" fill-opacity="1"><g transform="translate(132.690613, 220.519555)"><g><path d="M 22.953125 0 L 22.953125 -1.21875 L 26.078125 -1.21875 L 18.390625 -17.03125 L 17.09375 -16.6875 L 17.09375 -1.21875 L 20.234375 -1.21875 L 20.234375 0 L 0.6875 0 L 0.6875 -1.21875 L 4.421875 -1.21875 L 4.421875 -49.859375 L 0.40625 -49.859375 L 0.40625 -51.078125 L 17.09375 -51.078125 L 17.09375 -18.046875 L 18.1875 -18.453125 L 33.515625 -31.1875 L 27.109375 -31.1875 L 27.109375 -32.421875 L 40.53125 -32.421875 L 40.53125 -31.1875 L 35.75 -31.1875 L 27.65625 -24.3125 L 39.4375 -1.21875 L 41.890625 -1.21875 L 41.890625 0 Z M 22.953125 0 "/></g></g></g><g fill="#000000" fill-opacity="1"><g transform="translate(174.911195, 220.519555)"><g><path d="M 18.59375 0.6875 C 12.738281 0.6875 8.34375 -0.820312 5.40625 -3.84375 C 2.476562 -6.863281 1.015625 -11.0625 1.015625 -16.4375 C 1.015625 -21.820312 2.660156 -25.941406 5.953125 -28.796875 C 9.242188 -31.660156 13.4375 -33.09375 18.53125 -33.09375 C 28.832031 -33.09375 33.78125 -27.921875 33.375 -17.578125 L 14.171875 -17.578125 L 14.171875 -14.921875 C 14.171875 -10.460938 14.738281 -7.097656 15.875 -4.828125 C 17.007812 -2.566406 18.984375 -1.4375 21.796875 -1.4375 C 27.066406 -1.4375 30.515625 -4.25 32.140625 -9.875 L 33.375 -9.671875 C 32.507812 -6.398438 30.953125 -3.851562 28.703125 -2.03125 C 26.460938 -0.21875 23.09375 0.6875 18.59375 0.6875 Z M 14.234375 -18.9375 L 21.25 -18.9375 L 21.25 -22.265625 C 21.25 -25.941406 21.03125 -28.453125 20.59375 -29.796875 C 20.164062 -31.140625 19.304688 -31.8125 18.015625 -31.8125 C 16.722656 -31.8125 15.769531 -31.09375 15.15625 -29.65625 C 14.539062 -28.226562 14.234375 -25.765625 14.234375 -22.265625 Z M 14.234375 -18.9375 "/></g></g></g><g fill="#000000" fill-opacity="1"><g transform="translate(210.049613, 220.519555)"><g><path d="M 4.09375 -9.734375 L 4.09375 -31.1875 L 0.34375 -31.1875 L 0.34375 -32.421875 L 4.09375 -32.421875 L 4.09375 -41.203125 L 16.75 -44.34375 L 16.75 -32.421875 L 25.609375 -32.421875 L 25.609375 -31.1875 L 16.75 -31.1875 L 16.75 -8.234375 C 16.75 -6.109375 16.960938 -4.546875 17.390625 -3.546875 C 17.828125 -2.546875 18.726562 -2.046875 20.09375 -2.046875 C 21.457031 -2.046875 22.648438 -2.722656 23.671875 -4.078125 C 24.691406 -5.441406 25.359375 -7.304688 25.671875 -9.671875 L 26.828125 -9.53125 C 26.472656 -6.394531 25.476562 -3.90625 23.84375 -2.0625 C 22.207031 -0.226562 19.503906 0.6875 15.734375 0.6875 C 11.960938 0.6875 9.078125 -0.0625 7.078125 -1.5625 C 5.085938 -3.0625 4.09375 -5.785156 4.09375 -9.734375 Z M 4.09375 -9.734375 "/></g></g></g><g fill="#8c52ff" fill-opacity="1"><g transform="translate(236.882801, 220.519555)"><g><path d="M 1.4375 -47.671875 L 22.6875 -47.671875 L 22.6875 -46.375 L 18.734375 -46.375 L 18.734375 -25.265625 L 32.28125 -25.265625 L 32.28125 -46.375 L 28.265625 -46.375 L 28.265625 -47.671875 L 49.578125 -47.671875 L 49.578125 -46.375 L 45.5625 -46.375 L 45.5625 -1.296875 L 49.578125 -1.296875 L 49.578125 0 L 28.265625 0 L 28.265625 -1.296875 L 32.28125 -1.296875 L 32.28125 -23.5 L 18.734375 -23.5 L 18.734375 -1.296875 L 22.6875 -1.296875 L 22.6875 0 L 1.4375 0 L 1.4375 -1.296875 L 5.453125 -1.296875 L 5.453125 -46.375 L 1.4375 -46.375 Z M 1.4375 -47.671875 "/></g></g></g><g fill="#8c52ff" fill-opacity="1"><g transform="translate(287.887982, 220.519555)"><g><path d="M 40.53125 0 L 25 0 L 24.25 -4.96875 C 23.519531 -3.15625 22.4375 -1.757812 21 -0.78125 C 19.570312 0.195312 17.453125 0.6875 14.640625 0.6875 C 7.609375 0.6875 4.09375 -3.101562 4.09375 -10.6875 L 4.09375 -31.1875 L 0.265625 -31.1875 L 0.265625 -32.421875 L 16.75 -32.421875 L 16.75 -9.0625 C 16.75 -6.332031 16.941406 -4.535156 17.328125 -3.671875 C 17.710938 -2.816406 18.484375 -2.390625 19.640625 -2.390625 C 20.804688 -2.390625 21.84375 -3.09375 22.75 -4.5 C 23.65625 -5.90625 24.109375 -7.859375 24.109375 -10.359375 L 24.109375 -31.1875 L 20.984375 -31.1875 L 20.984375 -32.421875 L 36.78125 -32.421875 L 36.78125 -1.21875 L 40.53125 -1.21875 Z M 40.53125 0 "/></g></g></g><g fill="#8c52ff" fill-opacity="1"><g transform="translate(329.087099, 220.519555)"><g><path d="M 25.546875 -18.328125 C 25.546875 -23.003906 25.316406 -26.144531 24.859375 -27.75 C 24.398438 -29.363281 23.515625 -30.171875 22.203125 -30.171875 C 20.890625 -30.171875 19.707031 -29.351562 18.65625 -27.71875 C 17.613281 -26.082031 17.09375 -23.835938 17.09375 -20.984375 L 17.09375 -8.3125 C 17.09375 -6.351562 17.488281 -4.691406 18.28125 -3.328125 C 19.082031 -1.972656 20.21875 -1.296875 21.6875 -1.296875 C 23.164062 -1.296875 24.175781 -2.289062 24.71875 -4.28125 C 25.269531 -6.28125 25.546875 -9.78125 25.546875 -14.78125 Z M 17.09375 -51.078125 L 17.09375 -27.25 C 18.820312 -31.144531 21.773438 -33.09375 25.953125 -33.09375 C 34.441406 -33.09375 38.6875 -27.441406 38.6875 -16.140625 C 38.6875 -10.367188 37.515625 -6.117188 35.171875 -3.390625 C 32.835938 -0.671875 29.332031 0.6875 24.65625 0.6875 C 22.289062 0.6875 20.484375 0.320312 19.234375 -0.40625 C 17.992188 -1.132812 17.144531 -2.335938 16.6875 -4.015625 L 16.203125 0 L 0.6875 0 L 0.6875 -1.21875 L 4.421875 -1.21875 L 4.421875 -49.859375 L 0.6875 -49.859375 L 0.6875 -51.078125 Z M 17.09375 -51.078125 "/></g></g></g><g fill="#000000" fill-opacity="1"><g transform="translate(369.12889, 220.519555)"><g/></g></g><g fill="#ff914d" fill-opacity="1"><g transform="translate(23.335413, 254.181109)"><g><path d="M 9.09375 0.34375 C 7.488281 0.34375 5.9375 0.128906 4.4375 -0.296875 C 2.9375 -0.734375 1.726562 -1.300781 0.8125 -2 L 2.40625 -5.546875 C 3.28125 -4.910156 4.316406 -4.394531 5.515625 -4 C 6.722656 -3.613281 7.925781 -3.421875 9.125 -3.421875 C 10.457031 -3.421875 11.441406 -3.617188 12.078125 -4.015625 C 12.722656 -4.421875 13.046875 -4.953125 13.046875 -5.609375 C 13.046875 -6.085938 12.859375 -6.488281 12.484375 -6.8125 C 12.109375 -7.132812 11.625 -7.390625 11.03125 -7.578125 C 10.4375 -7.773438 9.632812 -7.988281 8.625 -8.21875 C 7.082031 -8.59375 5.816406 -8.960938 4.828125 -9.328125 C 3.835938 -9.691406 2.988281 -10.28125 2.28125 -11.09375 C 1.570312 -11.914062 1.21875 -13.003906 1.21875 -14.359375 C 1.21875 -15.535156 1.535156 -16.601562 2.171875 -17.5625 C 2.816406 -18.519531 3.78125 -19.28125 5.0625 -19.84375 C 6.351562 -20.40625 7.929688 -20.6875 9.796875 -20.6875 C 11.085938 -20.6875 12.351562 -20.53125 13.59375 -20.21875 C 14.84375 -19.914062 15.929688 -19.472656 16.859375 -18.890625 L 15.40625 -15.3125 C 13.519531 -16.382812 11.640625 -16.921875 9.765625 -16.921875 C 8.441406 -16.921875 7.46875 -16.707031 6.84375 -16.28125 C 6.21875 -15.851562 5.90625 -15.289062 5.90625 -14.59375 C 5.90625 -13.894531 6.265625 -13.375 6.984375 -13.03125 C 7.710938 -12.695312 8.820312 -12.363281 10.3125 -12.03125 C 11.863281 -11.664062 13.132812 -11.296875 14.125 -10.921875 C 15.113281 -10.554688 15.960938 -9.976562 16.671875 -9.1875 C 17.378906 -8.394531 17.734375 -7.316406 17.734375 -5.953125 C 17.734375 -4.796875 17.40625 -3.738281 16.75 -2.78125 C 16.101562 -1.820312 15.128906 -1.0625 13.828125 -0.5 C 12.535156 0.0625 10.957031 0.34375 9.09375 0.34375 Z M 9.09375 0.34375 "/></g></g></g><g fill="#ff914d" fill-opacity="1"><g transform="translate(41.868281, 254.181109)"><g><path d="M 11.59375 -15.875 C 13.53125 -15.875 15.09375 -15.289062 16.28125 -14.125 C 17.476562 -12.957031 18.078125 -11.234375 18.078125 -8.953125 L 18.078125 0 L 13.546875 0 L 13.546875 -8.25 C 13.546875 -9.488281 13.273438 -10.410156 12.734375 -11.015625 C 12.191406 -11.628906 11.40625 -11.9375 10.375 -11.9375 C 9.226562 -11.9375 8.316406 -11.582031 7.640625 -10.875 C 6.960938 -10.175781 6.625 -9.128906 6.625 -7.734375 L 6.625 0 L 2.09375 0 L 2.09375 -21.5625 L 6.625 -21.5625 L 6.625 -14.015625 C 7.226562 -14.609375 7.953125 -15.066406 8.796875 -15.390625 C 9.648438 -15.710938 10.582031 -15.875 11.59375 -15.875 Z M 11.59375 -15.875 "/></g></g></g><g fill="#ff914d" fill-opacity="1"><g transform="translate(61.940722, 254.181109)"><g><path d="M 9.53125 0.234375 C 7.882812 0.234375 6.40625 -0.109375 5.09375 -0.796875 C 3.789062 -1.484375 2.769531 -2.4375 2.03125 -3.65625 C 1.300781 -4.882812 0.9375 -6.269531 0.9375 -7.8125 C 0.9375 -9.363281 1.300781 -10.75 2.03125 -11.96875 C 2.769531 -13.195312 3.789062 -14.15625 5.09375 -14.84375 C 6.40625 -15.53125 7.882812 -15.875 9.53125 -15.875 C 11.175781 -15.875 12.644531 -15.53125 13.9375 -14.84375 C 15.238281 -14.15625 16.257812 -13.195312 17 -11.96875 C 17.738281 -10.75 18.109375 -9.363281 18.109375 -7.8125 C 18.109375 -6.269531 17.738281 -4.882812 17 -3.65625 C 16.257812 -2.4375 15.238281 -1.484375 13.9375 -0.796875 C 12.644531 -0.109375 11.175781 0.234375 9.53125 0.234375 Z M 9.53125 -3.484375 C 10.695312 -3.484375 11.648438 -3.875 12.390625 -4.65625 C 13.140625 -5.445312 13.515625 -6.5 13.515625 -7.8125 C 13.515625 -9.132812 13.140625 -10.1875 12.390625 -10.96875 C 11.648438 -11.75 10.695312 -12.140625 9.53125 -12.140625 C 8.363281 -12.140625 7.398438 -11.75 6.640625 -10.96875 C 5.890625 -10.1875 5.515625 -9.132812 5.515625 -7.8125 C 5.515625 -6.5 5.890625 -5.445312 6.640625 -4.65625 C 7.398438 -3.875 8.363281 -3.484375 9.53125 -3.484375 Z M 9.53125 -3.484375 "/></g></g></g><g fill="#ff914d" fill-opacity="1"><g transform="translate(80.967419, 254.181109)"><g><path d="M 11.328125 -15.875 C 12.785156 -15.875 14.109375 -15.535156 15.296875 -14.859375 C 16.492188 -14.191406 17.429688 -13.253906 18.109375 -12.046875 C 18.785156 -10.835938 19.125 -9.425781 19.125 -7.8125 C 19.125 -6.207031 18.785156 -4.796875 18.109375 -3.578125 C 17.429688 -2.367188 16.492188 -1.429688 15.296875 -0.765625 C 14.109375 -0.0976562 12.785156 0.234375 11.328125 0.234375 C 9.335938 0.234375 7.769531 -0.394531 6.625 -1.65625 L 6.625 5.640625 L 2.09375 5.640625 L 2.09375 -15.640625 L 6.421875 -15.640625 L 6.421875 -13.828125 C 7.546875 -15.191406 9.179688 -15.875 11.328125 -15.875 Z M 10.546875 -3.484375 C 11.710938 -3.484375 12.664062 -3.875 13.40625 -4.65625 C 14.15625 -5.445312 14.53125 -6.5 14.53125 -7.8125 C 14.53125 -9.132812 14.15625 -10.1875 13.40625 -10.96875 C 12.664062 -11.75 11.710938 -12.140625 10.546875 -12.140625 C 9.390625 -12.140625 8.4375 -11.75 7.6875 -10.96875 C 6.9375 -10.1875 6.5625 -9.132812 6.5625 -7.8125 C 6.5625 -6.5 6.9375 -5.445312 7.6875 -4.65625 C 8.4375 -3.875 9.390625 -3.484375 10.546875 -3.484375 Z M 10.546875 -3.484375 "/></g></g></g><g fill="#ff914d" fill-opacity="1"><g transform="translate(101.010803, 254.181109)"><g/></g></g><g fill="#ff914d" fill-opacity="1"><g transform="translate(109.231499, 254.181109)"><g><path d="M 20.921875 0 L 20.890625 -12.203125 L 14.90625 -2.15625 L 12.78125 -2.15625 L 6.828125 -11.9375 L 6.828125 0 L 2.40625 0 L 2.40625 -20.34375 L 6.3125 -20.34375 L 13.921875 -7.703125 L 21.421875 -20.34375 L 25.28125 -20.34375 L 25.34375 0 Z M 20.921875 0 "/></g></g></g><g fill="#ff914d" fill-opacity="1"><g transform="translate(136.972707, 254.181109)"><g><path d="M 9.53125 0.234375 C 7.882812 0.234375 6.40625 -0.109375 5.09375 -0.796875 C 3.789062 -1.484375 2.769531 -2.4375 2.03125 -3.65625 C 1.300781 -4.882812 0.9375 -6.269531 0.9375 -7.8125 C 0.9375 -9.363281 1.300781 -10.75 2.03125 -11.96875 C 2.769531 -13.195312 3.789062 -14.15625 5.09375 -14.84375 C 6.40625 -15.53125 7.882812 -15.875 9.53125 -15.875 C 11.175781 -15.875 12.644531 -15.53125 13.9375 -14.84375 C 15.238281 -14.15625 16.257812 -13.195312 17 -11.96875 C 17.738281 -10.75 18.109375 -9.363281 18.109375 -7.8125 C 18.109375 -6.269531 17.738281 -4.882812 17 -3.65625 C 16.257812 -2.4375 15.238281 -1.484375 13.9375 -0.796875 C 12.644531 -0.109375 11.175781 0.234375 9.53125 0.234375 Z M 9.53125 -3.484375 C 10.695312 -3.484375 11.648438 -3.875 12.390625 -4.65625 C 13.140625 -5.445312 13.515625 -6.5 13.515625 -7.8125 C 13.515625 -9.132812 13.140625 -10.1875 12.390625 -10.96875 C 11.648438 -11.75 10.695312 -12.140625 9.53125 -12.140625 C 8.363281 -12.140625 7.398438 -11.75 6.640625 -10.96875 C 5.890625 -10.1875 5.515625 -9.132812 5.515625 -7.8125 C 5.515625 -6.5 5.890625 -5.445312 6.640625 -4.65625 C 7.398438 -3.875 8.363281 -3.484375 9.53125 -3.484375 Z M 9.53125 -3.484375 "/></g></g></g><g fill="#ff914d" fill-opacity="1"><g transform="translate(155.999404, 254.181109)"><g><path d="M 6.421875 -13.578125 C 6.960938 -14.328125 7.691406 -14.894531 8.609375 -15.28125 C 9.535156 -15.675781 10.597656 -15.875 11.796875 -15.875 L 11.796875 -11.6875 C 11.296875 -11.71875 10.957031 -11.734375 10.78125 -11.734375 C 9.476562 -11.734375 8.457031 -11.367188 7.71875 -10.640625 C 6.988281 -9.921875 6.625 -8.832031 6.625 -7.375 L 6.625 0 L 2.09375 0 L 2.09375 -15.640625 L 6.421875 -15.640625 Z M 6.421875 -13.578125 "/></g></g></g><g fill="#ff914d" fill-opacity="1"><g transform="translate(168.519254, 254.181109)"><g><path d="M 17.40625 -7.765625 C 17.40625 -7.703125 17.378906 -7.296875 17.328125 -6.546875 L 5.5 -6.546875 C 5.707031 -5.578125 6.207031 -4.8125 7 -4.25 C 7.800781 -3.6875 8.789062 -3.40625 9.96875 -3.40625 C 10.78125 -3.40625 11.5 -3.523438 12.125 -3.765625 C 12.757812 -4.003906 13.347656 -4.382812 13.890625 -4.90625 L 16.296875 -2.296875 C 14.828125 -0.609375 12.679688 0.234375 9.859375 0.234375 C 8.085938 0.234375 6.523438 -0.109375 5.171875 -0.796875 C 3.816406 -1.484375 2.769531 -2.4375 2.03125 -3.65625 C 1.300781 -4.882812 0.9375 -6.269531 0.9375 -7.8125 C 0.9375 -9.34375 1.296875 -10.722656 2.015625 -11.953125 C 2.742188 -13.191406 3.742188 -14.15625 5.015625 -14.84375 C 6.285156 -15.53125 7.703125 -15.875 9.265625 -15.875 C 10.796875 -15.875 12.179688 -15.539062 13.421875 -14.875 C 14.660156 -14.21875 15.632812 -13.273438 16.34375 -12.046875 C 17.050781 -10.816406 17.40625 -9.390625 17.40625 -7.765625 Z M 9.296875 -12.4375 C 8.273438 -12.4375 7.414062 -12.144531 6.71875 -11.5625 C 6.019531 -10.976562 5.59375 -10.1875 5.4375 -9.1875 L 13.140625 -9.1875 C 12.984375 -10.175781 12.554688 -10.960938 11.859375 -11.546875 C 11.160156 -12.140625 10.304688 -12.4375 9.296875 -12.4375 Z M 9.296875 -12.4375 "/></g></g></g><g fill="#ff914d" fill-opacity="1"><g transform="translate(186.848788, 254.181109)"><g><path d="M 3.84375 -5.40625 C 4.65625 -5.40625 5.320312 -5.144531 5.84375 -4.625 C 6.363281 -4.113281 6.625 -3.441406 6.625 -2.609375 C 6.625 -2.222656 6.570312 -1.835938 6.46875 -1.453125 C 6.375 -1.066406 6.164062 -0.484375 5.84375 0.296875 L 4.1875 4.46875 L 1.3125 4.46875 L 2.59375 -0.140625 C 2.101562 -0.335938 1.71875 -0.65625 1.4375 -1.09375 C 1.15625 -1.53125 1.015625 -2.035156 1.015625 -2.609375 C 1.015625 -3.441406 1.28125 -4.113281 1.8125 -4.625 C 2.34375 -5.144531 3.019531 -5.40625 3.84375 -5.40625 Z M 3.84375 -5.40625 "/></g></g></g><g fill="#ff914d" fill-opacity="1"><g transform="translate(194.459466, 254.181109)"><g/></g></g><g fill="#ff914d" fill-opacity="1"><g transform="translate(202.680163, 254.181109)"><g><path d="M 9.09375 0.34375 C 7.488281 0.34375 5.9375 0.128906 4.4375 -0.296875 C 2.9375 -0.734375 1.726562 -1.300781 0.8125 -2 L 2.40625 -5.546875 C 3.28125 -4.910156 4.316406 -4.394531 5.515625 -4 C 6.722656 -3.613281 7.925781 -3.421875 9.125 -3.421875 C 10.457031 -3.421875 11.441406 -3.617188 12.078125 -4.015625 C 12.722656 -4.421875 13.046875 -4.953125 13.046875 -5.609375 C 13.046875 -6.085938 12.859375 -6.488281 12.484375 -6.8125 C 12.109375 -7.132812 11.625 -7.390625 11.03125 -7.578125 C 10.4375 -7.773438 9.632812 -7.988281 8.625 -8.21875 C 7.082031 -8.59375 5.816406 -8.960938 4.828125 -9.328125 C 3.835938 -9.691406 2.988281 -10.28125 2.28125 -11.09375 C 1.570312 -11.914062 1.21875 -13.003906 1.21875 -14.359375 C 1.21875 -15.535156 1.535156 -16.601562 2.171875 -17.5625 C 2.816406 -18.519531 3.78125 -19.28125 5.0625 -19.84375 C 6.351562 -20.40625 7.929688 -20.6875 9.796875 -20.6875 C 11.085938 -20.6875 12.351562 -20.53125 13.59375 -20.21875 C 14.84375 -19.914062 15.929688 -19.472656 16.859375 -18.890625 L 15.40625 -15.3125 C 13.519531 -16.382812 11.640625 -16.921875 9.765625 -16.921875 C 8.441406 -16.921875 7.46875 -16.707031 6.84375 -16.28125 C 6.21875 -15.851562 5.90625 -15.289062 5.90625 -14.59375 C 5.90625 -13.894531 6.265625 -13.375 6.984375 -13.03125 C 7.710938 -12.695312 8.820312 -12.363281 10.3125 -12.03125 C 11.863281 -11.664062 13.132812 -11.296875 14.125 -10.921875 C 15.113281 -10.554688 15.960938 -9.976562 16.671875 -9.1875 C 17.378906 -8.394531 17.734375 -7.316406 17.734375 -5.953125 C 17.734375 -4.796875 17.40625 -3.738281 16.75 -2.78125 C 16.101562 -1.820312 15.128906 -1.0625 13.828125 -0.5 C 12.535156 0.0625 10.957031 0.34375 9.09375 0.34375 Z M 9.09375 0.34375 "/></g></g></g><g fill="#ff914d" fill-opacity="1"><g transform="translate(221.213031, 254.181109)"><g><path d="M 8.40625 -15.875 C 10.820312 -15.875 12.675781 -15.296875 13.96875 -14.140625 C 15.269531 -12.984375 15.921875 -11.242188 15.921875 -8.921875 L 15.921875 0 L 11.6875 0 L 11.6875 -1.953125 C 10.832031 -0.492188 9.242188 0.234375 6.921875 0.234375 C 5.710938 0.234375 4.664062 0.03125 3.78125 -0.375 C 2.90625 -0.78125 2.234375 -1.34375 1.765625 -2.0625 C 1.304688 -2.78125 1.078125 -3.59375 1.078125 -4.5 C 1.078125 -5.957031 1.625 -7.101562 2.71875 -7.9375 C 3.8125 -8.769531 5.5 -9.1875 7.78125 -9.1875 L 11.390625 -9.1875 C 11.390625 -10.175781 11.085938 -10.9375 10.484375 -11.46875 C 9.890625 -12 8.988281 -12.265625 7.78125 -12.265625 C 6.957031 -12.265625 6.140625 -12.132812 5.328125 -11.875 C 4.523438 -11.613281 3.84375 -11.257812 3.28125 -10.8125 L 1.65625 -13.984375 C 2.507812 -14.578125 3.53125 -15.039062 4.71875 -15.375 C 5.914062 -15.707031 7.144531 -15.875 8.40625 -15.875 Z M 8.046875 -2.8125 C 8.828125 -2.8125 9.515625 -2.988281 10.109375 -3.34375 C 10.710938 -3.707031 11.140625 -4.238281 11.390625 -4.9375 L 11.390625 -6.546875 L 8.28125 -6.546875 C 6.425781 -6.546875 5.5 -5.929688 5.5 -4.703125 C 5.5 -4.128906 5.722656 -3.671875 6.171875 -3.328125 C 6.628906 -2.984375 7.253906 -2.8125 8.046875 -2.8125 Z M 8.046875 -2.8125 "/></g></g></g><g fill="#ff914d" fill-opacity="1"><g transform="translate(239.135882, 254.181109)"><g><path d="M 17.609375 -15.640625 L 11.015625 0 L 6.328125 0 L -0.234375 -15.640625 L 4.453125 -15.640625 L 8.78125 -5 L 13.25 -15.640625 Z M 17.609375 -15.640625 "/></g></g></g><g fill="#ff914d" fill-opacity="1"><g transform="translate(256.506816, 254.181109)"><g><path d="M 17.40625 -7.765625 C 17.40625 -7.703125 17.378906 -7.296875 17.328125 -6.546875 L 5.5 -6.546875 C 5.707031 -5.578125 6.207031 -4.8125 7 -4.25 C 7.800781 -3.6875 8.789062 -3.40625 9.96875 -3.40625 C 10.78125 -3.40625 11.5 -3.523438 12.125 -3.765625 C 12.757812 -4.003906 13.347656 -4.382812 13.890625 -4.90625 L 16.296875 -2.296875 C 14.828125 -0.609375 12.679688 0.234375 9.859375 0.234375 C 8.085938 0.234375 6.523438 -0.109375 5.171875 -0.796875 C 3.816406 -1.484375 2.769531 -2.4375 2.03125 -3.65625 C 1.300781 -4.882812 0.9375 -6.269531 0.9375 -7.8125 C 0.9375 -9.34375 1.296875 -10.722656 2.015625 -11.953125 C 2.742188 -13.191406 3.742188 -14.15625 5.015625 -14.84375 C 6.285156 -15.53125 7.703125 -15.875 9.265625 -15.875 C 10.796875 -15.875 12.179688 -15.539062 13.421875 -14.875 C 14.660156 -14.21875 15.632812 -13.273438 16.34375 -12.046875 C 17.050781 -10.816406 17.40625 -9.390625 17.40625 -7.765625 Z M 9.296875 -12.4375 C 8.273438 -12.4375 7.414062 -12.144531 6.71875 -11.5625 C 6.019531 -10.976562 5.59375 -10.1875 5.4375 -9.1875 L 13.140625 -9.1875 C 12.984375 -10.175781 12.554688 -10.960938 11.859375 -11.546875 C 11.160156 -12.140625 10.304688 -12.4375 9.296875 -12.4375 Z M 9.296875 -12.4375 "/></g></g></g><g fill="#ff914d" fill-opacity="1"><g transform="translate(274.836336, 254.181109)"><g/></g></g><g fill="#ff914d" fill-opacity="1"><g transform="translate(283.057032, 254.181109)"><g><path d="M 20.921875 0 L 20.890625 -12.203125 L 14.90625 -2.15625 L 12.78125 -2.15625 L 6.828125 -11.9375 L 6.828125 0 L 2.40625 0 L 2.40625 -20.34375 L 6.3125 -20.34375 L 13.921875 -7.703125 L 21.421875 -20.34375 L 25.28125 -20.34375 L 25.34375 0 Z M 20.921875 0 "/></g></g></g><g fill="#ff914d" fill-opacity="1"><g transform="translate(310.79824, 254.181109)"><g><path d="M 9.53125 0.234375 C 7.882812 0.234375 6.40625 -0.109375 5.09375 -0.796875 C 3.789062 -1.484375 2.769531 -2.4375 2.03125 -3.65625 C 1.300781 -4.882812 0.9375 -6.269531 0.9375 -7.8125 C 0.9375 -9.363281 1.300781 -10.75 2.03125 -11.96875 C 2.769531 -13.195312 3.789062 -14.15625 5.09375 -14.84375 C 6.40625 -15.53125 7.882812 -15.875 9.53125 -15.875 C 11.175781 -15.875 12.644531 -15.53125 13.9375 -14.84375 C 15.238281 -14.15625 16.257812 -13.195312 17 -11.96875 C 17.738281 -10.75 18.109375 -9.363281 18.109375 -7.8125 C 18.109375 -6.269531 17.738281 -4.882812 17 -3.65625 C 16.257812 -2.4375 15.238281 -1.484375 13.9375 -0.796875 C 12.644531 -0.109375 11.175781 0.234375 9.53125 0.234375 Z M 9.53125 -3.484375 C 10.695312 -3.484375 11.648438 -3.875 12.390625 -4.65625 C 13.140625 -5.445312 13.515625 -6.5 13.515625 -7.8125 C 13.515625 -9.132812 13.140625 -10.1875 12.390625 -10.96875 C 11.648438 -11.75 10.695312 -12.140625 9.53125 -12.140625 C 8.363281 -12.140625 7.398438 -11.75 6.640625 -10.96875 C 5.890625 -10.1875 5.515625 -9.132812 5.515625 -7.8125 C 5.515625 -6.5 5.890625 -5.445312 6.640625 -4.65625 C 7.398438 -3.875 8.363281 -3.484375 9.53125 -3.484375 Z M 9.53125 -3.484375 "/></g></g></g><g fill="#ff914d" fill-opacity="1"><g transform="translate(329.824937, 254.181109)"><g><path d="M 6.421875 -13.578125 C 6.960938 -14.328125 7.691406 -14.894531 8.609375 -15.28125 C 9.535156 -15.675781 10.597656 -15.875 11.796875 -15.875 L 11.796875 -11.6875 C 11.296875 -11.71875 10.957031 -11.734375 10.78125 -11.734375 C 9.476562 -11.734375 8.457031 -11.367188 7.71875 -10.640625 C 6.988281 -9.921875 6.625 -8.832031 6.625 -7.375 L 6.625 0 L 2.09375 0 L 2.09375 -15.640625 L 6.421875 -15.640625 Z M 6.421875 -13.578125 "/></g></g></g><g fill="#ff914d" fill-opacity="1"><g transform="translate(342.344787, 254.181109)"><g><path d="M 17.40625 -7.765625 C 17.40625 -7.703125 17.378906 -7.296875 17.328125 -6.546875 L 5.5 -6.546875 C 5.707031 -5.578125 6.207031 -4.8125 7 -4.25 C 7.800781 -3.6875 8.789062 -3.40625 9.96875 -3.40625 C 10.78125 -3.40625 11.5 -3.523438 12.125 -3.765625 C 12.757812 -4.003906 13.347656 -4.382812 13.890625 -4.90625 L 16.296875 -2.296875 C 14.828125 -0.609375 12.679688 0.234375 9.859375 0.234375 C 8.085938 0.234375 6.523438 -0.109375 5.171875 -0.796875 C 3.816406 -1.484375 2.769531 -2.4375 2.03125 -3.65625 C 1.300781 -4.882812 0.9375 -6.269531 0.9375 -7.8125 C 0.9375 -9.34375 1.296875 -10.722656 2.015625 -11.953125 C 2.742188 -13.191406 3.742188 -14.15625 5.015625 -14.84375 C 6.285156 -15.53125 7.703125 -15.875 9.265625 -15.875 C 10.796875 -15.875 12.179688 -15.539062 13.421875 -14.875 C 14.660156 -14.21875 15.632812 -13.273438 16.34375 -12.046875 C 17.050781 -10.816406 17.40625 -9.390625 17.40625 -7.765625 Z M 9.296875 -12.4375 C 8.273438 -12.4375 7.414062 -12.144531 6.71875 -11.5625 C 6.019531 -10.976562 5.59375 -10.1875 5.4375 -9.1875 L 13.140625 -9.1875 C 12.984375 -10.175781 12.554688 -10.960938 11.859375 -11.546875 C 11.160156 -12.140625 10.304688 -12.4375 9.296875 -12.4375 Z M 9.296875 -12.4375 "/></g></g></g></svg>