<svg xmlns="http://www.w3.org/2000/svg" xmlns:xlink="http://www.w3.org/1999/xlink" width="500" zoomAndPan="magnify" viewBox="0 0 375 374.999991" height="500" preserveAspectRatio="xMidYMid meet" version="1.0"><defs><g/></defs><g fill="#ff914d" fill-opacity="1"><g transform="translate(4.42197, 209.665768)"><g><path d="M 57.15625 -1.9375 C 63.007812 -1.9375 68.191406 -3.519531 72.703125 -6.6875 C 77.222656 -9.851562 79.484375 -14.628906 79.484375 -21.015625 C 79.484375 -27.398438 77.050781 -32.289062 72.1875 -35.6875 C 67.320312 -39.09375 60.40625 -42.054688 51.4375 -44.578125 C 42.46875 -47.097656 35.957031 -49.296875 31.90625 -51.171875 C 27.863281 -53.046875 24.023438 -55.507812 20.390625 -58.5625 C 13.128906 -64.65625 9.5 -74.085938 9.5 -86.859375 C 9.5 -97.296875 13.21875 -106.265625 20.65625 -113.765625 C 28.101562 -121.273438 38.273438 -125.03125 51.171875 -125.03125 C 57.378906 -125.03125 63.851562 -124.117188 70.59375 -122.296875 C 77.34375 -120.484375 81.535156 -119.578125 83.171875 -119.578125 C 84.816406 -119.578125 86.28125 -120.75 87.5625 -123.09375 L 89.5 -123.09375 L 90.734375 -87.5625 L 87.921875 -87.5625 C 82.296875 -97.769531 76.40625 -105.945312 70.25 -112.09375 C 64.09375 -118.25 57.410156 -121.328125 50.203125 -121.328125 C 42.992188 -121.328125 37.394531 -119.65625 33.40625 -116.3125 C 29.425781 -112.976562 27.4375 -108.523438 27.4375 -102.953125 C 27.4375 -97.390625 29.804688 -93.113281 34.546875 -90.125 C 39.296875 -87.132812 45.128906 -84.703125 52.046875 -82.828125 C 58.960938 -80.953125 63.503906 -79.660156 65.671875 -78.953125 C 67.847656 -78.253906 70.546875 -77.285156 73.765625 -76.046875 C 76.992188 -74.816406 79.628906 -73.523438 81.671875 -72.171875 C 83.722656 -70.828125 85.890625 -69.128906 88.171875 -67.078125 C 90.460938 -65.023438 92.253906 -62.769531 93.546875 -60.3125 C 96.710938 -54.6875 98.296875 -48.003906 98.296875 -40.265625 C 98.296875 -27.609375 94.335938 -17.4375 86.421875 -9.75 C 78.515625 -2.070312 68.113281 1.765625 55.21875 1.765625 C 48.53125 1.765625 40.878906 0.882812 32.265625 -0.875 C 23.648438 -2.632812 18.875 -3.515625 17.9375 -3.515625 C 16.289062 -3.515625 14.707031 -1.753906 13.1875 1.765625 L 10.71875 1.765625 L 8.96875 -40.09375 L 11.953125 -40.09375 C 17.109375 -29.894531 23.703125 -20.984375 31.734375 -13.359375 C 39.765625 -5.742188 48.238281 -1.9375 57.15625 -1.9375 Z M 57.15625 -1.9375 "/></g></g></g><g fill="#ff914d" fill-opacity="1"><g transform="translate(109.91882, 209.665768)"><g><path d="M 48 1.765625 C 32.882812 1.765625 21.546875 -2.128906 13.984375 -9.921875 C 6.421875 -17.722656 2.640625 -28.566406 2.640625 -42.453125 C 2.640625 -56.347656 6.890625 -66.988281 15.390625 -74.375 C 23.890625 -81.757812 34.703125 -85.453125 47.828125 -85.453125 C 74.441406 -85.453125 87.21875 -72.09375 86.15625 -45.375 L 36.578125 -45.375 L 36.578125 -38.515625 C 36.578125 -27.023438 38.039062 -18.347656 40.96875 -12.484375 C 43.90625 -6.617188 49.003906 -3.6875 56.265625 -3.6875 C 69.867188 -3.6875 78.78125 -10.957031 83 -25.5 L 86.15625 -24.96875 C 83.9375 -16.53125 79.921875 -9.960938 74.109375 -5.265625 C 68.304688 -0.578125 59.601562 1.765625 48 1.765625 Z M 36.75 -48.890625 L 54.859375 -48.890625 L 54.859375 -57.5 C 54.859375 -67 54.300781 -73.476562 53.1875 -76.9375 C 52.070312 -80.394531 49.84375 -82.125 46.5 -82.125 C 43.164062 -82.125 40.707031 -80.273438 39.125 -76.578125 C 37.539062 -72.890625 36.75 -66.53125 36.75 -57.5 Z M 36.75 -48.890625 "/></g></g></g><g fill="#ff914d" fill-opacity="1"><g transform="translate(200.646109, 209.665768)"><g><path d="M 10.546875 -25.140625 L 10.546875 -80.53125 L 0.875 -80.53125 L 0.875 -83.703125 L 10.546875 -83.703125 L 10.546875 -106.390625 L 43.25 -114.46875 L 43.25 -83.703125 L 66.125 -83.703125 L 66.125 -80.53125 L 43.25 -80.53125 L 43.25 -21.28125 C 43.25 -15.769531 43.804688 -11.722656 44.921875 -9.140625 C 46.035156 -6.566406 48.351562 -5.28125 51.875 -5.28125 C 55.394531 -5.28125 58.472656 -7.035156 61.109375 -10.546875 C 63.742188 -14.066406 65.472656 -18.875 66.296875 -24.96875 L 69.28125 -24.625 C 68.34375 -16.53125 65.765625 -10.109375 61.546875 -5.359375 C 57.328125 -0.609375 50.351562 1.765625 40.625 1.765625 C 30.894531 1.765625 23.445312 -0.164062 18.28125 -4.03125 C 13.125 -7.90625 10.546875 -14.941406 10.546875 -25.140625 Z M 10.546875 -25.140625 "/></g></g></g><g fill="#ff914d" fill-opacity="1"><g transform="translate(269.922365, 209.665768)"><g><path d="M 48 1.765625 C 32.882812 1.765625 21.546875 -2.128906 13.984375 -9.921875 C 6.421875 -17.722656 2.640625 -28.566406 2.640625 -42.453125 C 2.640625 -56.347656 6.890625 -66.988281 15.390625 -74.375 C 23.890625 -81.757812 34.703125 -85.453125 47.828125 -85.453125 C 74.441406 -85.453125 87.21875 -72.09375 86.15625 -45.375 L 36.578125 -45.375 L 36.578125 -38.515625 C 36.578125 -27.023438 38.039062 -18.347656 40.96875 -12.484375 C 43.90625 -6.617188 49.003906 -3.6875 56.265625 -3.6875 C 69.867188 -3.6875 78.78125 -10.957031 83 -25.5 L 86.15625 -24.96875 C 83.9375 -16.53125 79.921875 -9.960938 74.109375 -5.265625 C 68.304688 -0.578125 59.601562 1.765625 48 1.765625 Z M 36.75 -48.890625 L 54.859375 -48.890625 L 54.859375 -57.5 C 54.859375 -67 54.300781 -73.476562 53.1875 -76.9375 C 52.070312 -80.394531 49.84375 -82.125 46.5 -82.125 C 43.164062 -82.125 40.707031 -80.273438 39.125 -76.578125 C 37.539062 -72.890625 36.75 -66.53125 36.75 -57.5 Z M 36.75 -48.890625 "/></g></g></g></svg>