<svg xmlns="http://www.w3.org/2000/svg" xmlns:xlink="http://www.w3.org/1999/xlink" width="500" zoomAndPan="magnify" viewBox="0 0 375 374.999991" height="500" preserveAspectRatio="xMidYMid meet" version="1.0"><defs><g/></defs><g fill="#ff914d" fill-opacity="1"><g transform="translate(-0.0595866, 203.259451)"><g><path d="M 27.4375 0 L 27.4375 -1.765625 L 34.640625 -3.515625 C 39.441406 -4.566406 41.84375 -7.5 41.84375 -12.3125 L 41.84375 -112.546875 L 26.90625 -112.546875 C 22.5625 -112.546875 19.453125 -111.398438 17.578125 -109.109375 C 15.703125 -106.828125 13.710938 -103.691406 11.609375 -99.703125 L 5.28125 -87.390625 L 3.515625 -87.390625 L 4.390625 -116.0625 L 105.859375 -116.0625 L 106.5625 -87.390625 L 104.796875 -87.390625 L 98.46875 -99.703125 C 96.476562 -103.691406 94.546875 -106.828125 92.671875 -109.109375 C 90.796875 -111.398438 87.6875 -112.546875 83.34375 -112.546875 L 68.40625 -112.546875 L 68.40625 -12.3125 C 68.40625 -7.5 70.804688 -4.566406 75.609375 -3.515625 L 82.828125 -1.765625 L 82.828125 0 Z M 27.4375 0 "/></g></g></g><g fill="#ff914d" fill-opacity="1"><g transform="translate(110.185554, 203.259451)"><g><path d="M 47.65625 -87.21875 C 55.269531 -87.21875 61.773438 -85.664062 67.171875 -82.5625 C 72.566406 -79.457031 76.695312 -75.234375 79.5625 -69.890625 C 82.4375 -64.554688 83.875 -58.492188 83.875 -51.703125 C 83.875 -50.410156 83.816406 -49.085938 83.703125 -47.734375 C 83.585938 -46.390625 83.351562 -45.191406 83 -44.140625 L 30.59375 -44.140625 C 30.707031 -31.472656 32.960938 -22.351562 37.359375 -16.78125 C 41.753906 -11.21875 48.289062 -8.4375 56.96875 -8.4375 C 62.832031 -8.4375 67.582031 -9.375 71.21875 -11.25 C 74.851562 -13.125 78.253906 -15.878906 81.421875 -19.515625 L 83.171875 -17.9375 C 79.535156 -11.488281 74.695312 -6.445312 68.65625 -2.8125 C 62.625 0.820312 55.390625 2.640625 46.953125 2.640625 C 38.628906 2.640625 31.242188 0.851562 24.796875 -2.71875 C 18.347656 -6.300781 13.304688 -11.429688 9.671875 -18.109375 C 6.035156 -24.796875 4.21875 -32.769531 4.21875 -42.03125 C 4.21875 -51.644531 6.328125 -59.820312 10.546875 -66.5625 C 14.765625 -73.300781 20.1875 -78.425781 26.8125 -81.9375 C 33.4375 -85.457031 40.382812 -87.21875 47.65625 -87.21875 Z M 47.125 -83.703125 C 43.726562 -83.703125 40.828125 -82.675781 38.421875 -80.625 C 36.015625 -78.570312 34.132812 -74.9375 32.78125 -69.71875 C 31.4375 -64.5 30.707031 -57.144531 30.59375 -47.65625 L 60.671875 -47.65625 C 61.835938 -60.4375 61.363281 -69.640625 59.25 -75.265625 C 57.144531 -80.890625 53.101562 -83.703125 47.125 -83.703125 Z M 47.125 -83.703125 "/></g></g></g><g fill="#ff914d" fill-opacity="1"><g transform="translate(199.331131, 203.259451)"><g><path d="M 33.9375 2.640625 C 28.195312 2.640625 23.039062 1.960938 18.46875 0.609375 C 13.894531 -0.734375 9.671875 -2.398438 5.796875 -4.390625 L 5.984375 -25.328125 L 7.734375 -25.328125 L 13.71875 -14.765625 C 16.289062 -10.078125 19.128906 -6.585938 22.234375 -4.296875 C 25.347656 -2.015625 29.304688 -0.875 34.109375 -0.875 C 39.734375 -0.875 44.273438 -2.132812 47.734375 -4.65625 C 51.191406 -7.175781 52.921875 -10.546875 52.921875 -14.765625 C 52.921875 -18.640625 51.691406 -21.804688 49.234375 -24.265625 C 46.773438 -26.722656 42.203125 -28.953125 35.515625 -30.953125 L 28.140625 -33.234375 C 20.984375 -35.347656 15.351562 -38.628906 11.25 -43.078125 C 7.144531 -47.535156 5.09375 -52.988281 5.09375 -59.4375 C 5.09375 -67.175781 8.140625 -73.738281 14.234375 -79.125 C 20.335938 -84.519531 29.070312 -87.21875 40.4375 -87.21875 C 45.007812 -87.21875 49.316406 -86.71875 53.359375 -85.71875 C 57.410156 -84.726562 61.3125 -83.234375 65.0625 -81.234375 L 64 -62.25 L 62.25 -62.25 L 56.09375 -73.15625 C 53.863281 -77.019531 51.664062 -79.742188 49.5 -81.328125 C 47.332031 -82.910156 44.078125 -83.703125 39.734375 -83.703125 C 35.753906 -83.703125 32.003906 -82.585938 28.484375 -80.359375 C 24.972656 -78.128906 23.21875 -74.960938 23.21875 -70.859375 C 23.21875 -66.878906 24.707031 -63.71875 27.6875 -61.375 C 30.675781 -59.03125 35.101562 -56.859375 40.96875 -54.859375 L 48.890625 -52.578125 C 57.328125 -49.992188 63.363281 -46.445312 67 -41.9375 C 70.632812 -37.425781 72.453125 -32.003906 72.453125 -25.671875 C 72.453125 -17.117188 69.078125 -10.257812 62.328125 -5.09375 C 55.585938 0.0625 46.125 2.640625 33.9375 2.640625 Z M 33.9375 2.640625 "/></g></g></g><g fill="#ff914d" fill-opacity="1"><g transform="translate(275.992821, 203.259451)"><g><path d="M 47.65625 -87.21875 C 55.269531 -87.21875 61.773438 -85.664062 67.171875 -82.5625 C 72.566406 -79.457031 76.695312 -75.234375 79.5625 -69.890625 C 82.4375 -64.554688 83.875 -58.492188 83.875 -51.703125 C 83.875 -50.410156 83.816406 -49.085938 83.703125 -47.734375 C 83.585938 -46.390625 83.351562 -45.191406 83 -44.140625 L 30.59375 -44.140625 C 30.707031 -31.472656 32.960938 -22.351562 37.359375 -16.78125 C 41.753906 -11.21875 48.289062 -8.4375 56.96875 -8.4375 C 62.832031 -8.4375 67.582031 -9.375 71.21875 -11.25 C 74.851562 -13.125 78.253906 -15.878906 81.421875 -19.515625 L 83.171875 -17.9375 C 79.535156 -11.488281 74.695312 -6.445312 68.65625 -2.8125 C 62.625 0.820312 55.390625 2.640625 46.953125 2.640625 C 38.628906 2.640625 31.242188 0.851562 24.796875 -2.71875 C 18.347656 -6.300781 13.304688 -11.429688 9.671875 -18.109375 C 6.035156 -24.796875 4.21875 -32.769531 4.21875 -42.03125 C 4.21875 -51.644531 6.328125 -59.820312 10.546875 -66.5625 C 14.765625 -73.300781 20.1875 -78.425781 26.8125 -81.9375 C 33.4375 -85.457031 40.382812 -87.21875 47.65625 -87.21875 Z M 47.125 -83.703125 C 43.726562 -83.703125 40.828125 -82.675781 38.421875 -80.625 C 36.015625 -78.570312 34.132812 -74.9375 32.78125 -69.71875 C 31.4375 -64.5 30.707031 -57.144531 30.59375 -47.65625 L 60.671875 -47.65625 C 61.835938 -60.4375 61.363281 -69.640625 59.25 -75.265625 C 57.144531 -80.890625 53.101562 -83.703125 47.125 -83.703125 Z M 47.125 -83.703125 "/></g></g></g></svg>