<svg xmlns="http://www.w3.org/2000/svg" xmlns:xlink="http://www.w3.org/1999/xlink" width="500" zoomAndPan="magnify" viewBox="0 0 375 374.999991" height="500" preserveAspectRatio="xMidYMid meet" version="1.0"><defs><g/><clipPath id="abced5eadd"><path d="M 75.5625 62 L 321.5625 62 L 321.5625 317 L 75.5625 317 Z M 75.5625 62 " clip-rule="nonzero"/></clipPath><clipPath id="01edea55d0"><path d="M 158 91 L 219.8125 91 L 219.8125 148 L 158 148 Z M 158 91 " clip-rule="nonzero"/></clipPath><clipPath id="3be385cca4"><path d="M 131.3125 110 L 162 110 L 162 156 L 131.3125 156 Z M 131.3125 110 " clip-rule="nonzero"/></clipPath></defs><g clip-path="url(#abced5eadd)"><path fill="#000000" d="M 167.601562 66.730469 C 200.785156 58.386719 234.300781 63.984375 261.867188 79.898438 C 289.960938 96.117188 311.871094 123.058594 320.933594 156.871094 C 321.128906 157.617188 321.320312 158.367188 321.507812 159.109375 L 319.570312 159.789062 C 319.371094 158.992188 319.167969 158.195312 318.957031 157.398438 C 310.042969 124.128906 288.488281 97.625 260.84375 81.660156 C 233.347656 65.785156 199.824219 60.347656 166.726562 69.066406 C 167.035156 68.292969 167.328125 67.515625 167.601562 66.730469 Z M 77.5 220.007812 C 77.660156 220.660156 77.828125 221.308594 78.003906 221.960938 C 86.917969 255.230469 108.472656 281.738281 136.117188 297.699219 C 163.742188 313.648438 197.453125 319.0625 230.707031 310.171875 C 230.386719 310.945312 230.085938 311.726562 229.796875 312.519531 C 196.46875 321.023438 162.777344 315.445312 135.09375 299.464844 C 106.996094 283.242188 85.089844 256.304688 76.03125 222.488281 C 75.871094 221.886719 75.714844 221.285156 75.5625 220.683594 Z M 77.5 220.007812 " fill-opacity="1" fill-rule="evenodd"/></g><g clip-path="url(#01edea55d0)"><path fill="#ff5757" d="M 218.171875 91.496094 L 171.339844 91.496094 C 169.605469 91.496094 167.945312 92.890625 167.640625 94.585938 L 158.695312 144.082031 C 158.390625 145.796875 159.550781 147.171875 161.285156 147.171875 L 162.855469 147.171875 C 164.140625 145.402344 165.839844 144.132812 167.679688 143.546875 C 169.875 142.847656 172.019531 143.207031 173.734375 144.546875 C 174.609375 145.222656 175.324219 146.117188 175.824219 147.171875 L 190.539062 147.171875 C 191.828125 145.402344 193.523438 144.132812 195.378906 143.546875 C 197.578125 142.847656 199.722656 143.207031 201.433594 144.546875 C 202.3125 145.222656 203.023438 146.117188 203.523438 147.171875 L 208.117188 147.171875 C 209.152344 147.171875 210.152344 146.332031 210.332031 145.3125 L 212.277344 134.4375 C 212.457031 133.417969 211.757812 132.578125 210.722656 132.578125 L 178.199219 132.578125 C 177.839844 132.578125 177.625 132.292969 177.679688 131.953125 L 178.644531 126.59375 C 178.699219 126.253906 179.039062 125.96875 179.378906 125.96875 L 205.542969 125.96875 C 206.578125 125.96875 207.578125 125.128906 207.757812 124.113281 L 209.492188 114.484375 C 209.667969 113.46875 208.992188 112.628906 207.9375 112.628906 L 181.804688 112.628906 C 181.46875 112.628906 181.234375 112.339844 181.289062 112.003906 L 182.324219 106.269531 C 182.378906 105.929688 182.71875 105.644531 183.054688 105.644531 L 215.597656 105.644531 C 216.636719 105.644531 217.636719 104.804688 217.8125 103.785156 L 219.707031 93.300781 C 219.902344 92.320312 219.207031 91.496094 218.171875 91.496094 Z M 184.324219 98.265625 C 183.59375 99.910156 181.84375 100.75 180.429688 100.125 C 179.003906 99.5 178.449219 97.640625 179.164062 96 C 179.894531 94.355469 181.644531 93.515625 183.054688 94.140625 C 184.484375 94.765625 185.039062 96.625 184.324219 98.265625 Z M 205.703125 98.265625 C 204.972656 99.910156 203.222656 100.75 201.8125 100.125 C 200.382812 99.5 199.828125 97.640625 200.542969 96 C 201.273438 94.355469 203.023438 93.515625 204.4375 94.140625 C 205.882812 94.765625 206.4375 96.625 205.703125 98.265625 Z M 205.703125 98.265625 " fill-opacity="1" fill-rule="nonzero"/></g><g clip-path="url(#3be385cca4)"><path fill="#662d91" d="M 161.570312 149.421875 C 160.765625 151.226562 160.410156 153.207031 160.570312 155.117188 C 160.570312 155.226562 160.585938 155.332031 160.605469 155.441406 L 159.535156 155.441406 C 156.746094 155.441406 154.121094 154.207031 152.335938 152.082031 C 150.550781 149.9375 149.816406 147.152344 150.300781 144.402344 L 155.335938 116.558594 L 134.3125 116.558594 C 132.652344 116.558594 131.3125 115.199219 131.3125 113.554688 C 131.3125 111.894531 132.652344 110.554688 134.3125 110.554688 L 155.585938 110.554688 C 157.300781 110.554688 158.925781 111.304688 160.035156 112.628906 C 161.140625 113.949219 161.585938 115.683594 161.285156 117.359375 L 156.210938 145.472656 C 156.03125 146.457031 156.300781 147.457031 156.945312 148.226562 C 157.585938 148.992188 158.515625 149.421875 159.515625 149.421875 Z M 161.570312 149.421875 " fill-opacity="1" fill-rule="nonzero"/></g><path fill="#662d91" d="M 189.253906 149.421875 C 188.449219 151.226562 188.09375 153.207031 188.253906 155.117188 C 188.253906 155.226562 188.273438 155.332031 188.289062 155.441406 L 176.054688 155.441406 C 176.625 153.867188 176.859375 152.191406 176.734375 150.546875 C 176.699219 150.152344 176.664062 149.777344 176.589844 149.421875 Z M 189.253906 149.421875 " fill-opacity="1" fill-rule="nonzero"/><path fill="#662d91" d="M 212.847656 152.441406 C 212.847656 154.101562 211.507812 155.441406 209.847656 155.441406 L 203.757812 155.441406 C 204.328125 153.867188 204.5625 152.191406 204.4375 150.546875 C 204.402344 150.152344 204.363281 149.777344 204.292969 149.421875 L 209.847656 149.421875 C 211.492188 149.421875 212.847656 150.777344 212.847656 152.441406 Z M 212.847656 152.441406 " fill-opacity="1" fill-rule="nonzero"/><path fill="#8c52ff" d="M 172.875 145.972656 C 170.070312 143.796875 165.910156 145.097656 163.570312 148.902344 C 161.230469 152.691406 161.605469 157.546875 164.410156 159.710938 C 167.214844 161.886719 171.375 160.585938 173.714844 156.78125 C 176.054688 152.992188 175.679688 148.152344 172.875 145.972656 Z M 172.875 145.972656 " fill-opacity="1" fill-rule="nonzero"/><path fill="#8c52ff" d="M 200.578125 145.972656 C 197.773438 143.796875 193.613281 145.097656 191.273438 148.902344 C 188.933594 152.691406 189.308594 157.546875 192.113281 159.710938 C 194.917969 161.886719 199.078125 160.585938 201.417969 156.78125 C 203.757812 152.976562 203.382812 148.152344 200.578125 145.972656 Z M 200.578125 145.972656 " fill-opacity="1" fill-rule="nonzero"/><path fill="#8c52ff" d="M 203.3125 97.875 C 202.738281 97.875 202.132812 97.554688 201.683594 96.820312 L 204.007812 85.28125 C 204.703125 81.851562 203.382812 78.316406 200.328125 76.046875 C 200.257812 75.996094 200.167969 75.941406 200.078125 75.886719 C 196.84375 73.921875 193.078125 74.046875 190.164062 75.976562 C 188.164062 77.316406 186.789062 79.351562 186.308594 81.710938 L 183.289062 96.675781 C 183.019531 97.964844 181.179688 98.535156 180.199219 96.785156 L 183.359375 81.121094 C 184.269531 76.566406 187.683594 72.941406 192.539062 71.707031 C 192.738281 71.652344 192.933594 71.617188 193.128906 71.601562 C 198.09375 70.902344 202.613281 72.976562 205.1875 76.851562 C 206.953125 79.53125 207.597656 82.746094 206.953125 85.890625 L 204.777344 96.675781 C 204.632812 97.390625 204.007812 97.875 203.3125 97.875 Z M 203.3125 97.875 " fill-opacity="1" fill-rule="nonzero"/><g fill="#000000" fill-opacity="1"><g transform="translate(88.798767, 196.835656)"><g><path d="M 19.75 -24.359375 L 19.75 -19.71875 L 7.9375 -19.71875 L 7.9375 -14.53125 L 18.40625 -14.53125 L 18.40625 -9.890625 L 7.9375 -9.890625 L 7.9375 -4.640625 L 20.21875 -4.640625 L 20.21875 0 L 3.140625 0 L 3.140625 -24.359375 Z M 19.75 -24.359375 "/></g></g></g><g fill="#000000" fill-opacity="1"><g transform="translate(137.306327, 196.835656)"><g><path d="M 7.9375 -24.359375 L 7.9375 -4.640625 L 19.390625 -4.640625 L 19.390625 0 L 3.140625 0 L 3.140625 -24.359375 Z M 7.9375 -24.359375 "/></g></g></g><g fill="#000000" fill-opacity="1"><g transform="translate(184.986833, 196.835656)"><g><path d="M 1.65625 -12.140625 C 1.65625 -14.347656 2.210938 -16.410156 3.328125 -18.328125 C 4.441406 -20.253906 5.953125 -21.785156 7.859375 -22.921875 C 9.765625 -24.054688 11.832031 -24.625 14.0625 -24.625 C 16.289062 -24.625 18.359375 -24.054688 20.265625 -22.921875 C 22.171875 -21.785156 23.691406 -20.253906 24.828125 -18.328125 C 25.972656 -16.410156 26.546875 -14.347656 26.546875 -12.140625 C 26.546875 -9.890625 25.972656 -7.816406 24.828125 -5.921875 C 23.691406 -4.023438 22.171875 -2.519531 20.265625 -1.40625 C 18.359375 -0.289062 16.289062 0.265625 14.0625 0.265625 C 11.8125 0.265625 9.738281 -0.289062 7.84375 -1.40625 C 5.945312 -2.519531 4.441406 -4.023438 3.328125 -5.921875 C 2.210938 -7.816406 1.65625 -9.890625 1.65625 -12.140625 Z M 6.625 -12.140625 C 6.625 -10.734375 6.957031 -9.429688 7.625 -8.234375 C 8.300781 -7.046875 9.21875 -6.101562 10.375 -5.40625 C 11.53125 -4.71875 12.816406 -4.375 14.234375 -4.375 C 15.597656 -4.375 16.84375 -4.71875 17.96875 -5.40625 C 19.09375 -6.101562 19.972656 -7.039062 20.609375 -8.21875 C 21.253906 -9.40625 21.578125 -10.710938 21.578125 -12.140625 C 21.578125 -13.597656 21.242188 -14.921875 20.578125 -16.109375 C 19.921875 -17.304688 19.023438 -18.25 17.890625 -18.9375 C 16.753906 -19.632812 15.488281 -19.984375 14.09375 -19.984375 C 12.707031 -19.984375 11.445312 -19.632812 10.3125 -18.9375 C 9.175781 -18.25 8.273438 -17.304688 7.609375 -16.109375 C 6.953125 -14.921875 6.625 -13.597656 6.625 -12.140625 Z M 6.625 -12.140625 "/></g></g></g><g fill="#000000" fill-opacity="1"><g transform="translate(239.647635, 196.835656)"><g><path d="M 16.28125 0 L 11.15625 -7.75 L 7.9375 -7.75 L 7.9375 0 L 3.140625 0 L 3.140625 -24.359375 L 10.53125 -24.359375 C 13.550781 -24.359375 15.894531 -23.625 17.5625 -22.15625 C 19.226562 -20.6875 20.0625 -18.6875 20.0625 -16.15625 C 20.0625 -14.65625 19.742188 -13.25 19.109375 -11.9375 C 18.484375 -10.625 17.519531 -9.59375 16.21875 -8.84375 L 21.875 0 Z M 7.9375 -12.375 L 11.34375 -12.375 C 12.644531 -12.375 13.59375 -12.753906 14.1875 -13.515625 C 14.789062 -14.273438 15.09375 -15.097656 15.09375 -15.984375 C 15.09375 -16.867188 14.835938 -17.710938 14.328125 -18.515625 C 13.816406 -19.316406 12.835938 -19.71875 11.390625 -19.71875 L 7.9375 -19.71875 Z M 7.9375 -12.375 "/></g></g></g><g fill="#000000" fill-opacity="1"><g transform="translate(288.816828, 196.835656)"><g><path d="M 15.1875 -4.765625 L 7.109375 -4.765625 L 5.125 0 L 0.390625 0 L 11.390625 -25.3125 L 11.65625 -25.3125 L 22.640625 0 L 17.078125 0 Z M 13.59375 -8.796875 L 11.25 -14.734375 L 8.796875 -8.796875 Z M 13.59375 -8.796875 "/></g></g></g><g fill="#000000" fill-opacity="1"><g transform="translate(338.326099, 196.835656)"><g/></g></g><g fill="#ff5757" fill-opacity="1"><g transform="translate(86.752989, 228.275134)"><g><path d="M 0.6875 -5.03125 C 0.6875 -5.945312 0.914062 -6.800781 1.375 -7.59375 C 1.832031 -8.382812 2.457031 -9.015625 3.25 -9.484375 C 4.039062 -9.953125 4.898438 -10.1875 5.828125 -10.1875 C 6.742188 -10.1875 7.597656 -9.953125 8.390625 -9.484375 C 9.179688 -9.015625 9.8125 -8.382812 10.28125 -7.59375 C 10.75 -6.800781 10.984375 -5.945312 10.984375 -5.03125 C 10.984375 -4.09375 10.75 -3.234375 10.28125 -2.453125 C 9.8125 -1.671875 9.179688 -1.046875 8.390625 -0.578125 C 7.597656 -0.117188 6.742188 0.109375 5.828125 0.109375 C 4.890625 0.109375 4.023438 -0.117188 3.234375 -0.578125 C 2.453125 -1.046875 1.832031 -1.671875 1.375 -2.453125 C 0.914062 -3.234375 0.6875 -4.09375 0.6875 -5.03125 Z M 2.734375 -5.03125 C 2.734375 -4.445312 2.875 -3.90625 3.15625 -3.40625 C 3.4375 -2.914062 3.816406 -2.523438 4.296875 -2.234375 C 4.773438 -1.953125 5.304688 -1.8125 5.890625 -1.8125 C 6.453125 -1.8125 6.96875 -1.953125 7.4375 -2.234375 C 7.90625 -2.523438 8.269531 -2.914062 8.53125 -3.40625 C 8.800781 -3.894531 8.9375 -4.4375 8.9375 -5.03125 C 8.9375 -5.632812 8.796875 -6.179688 8.515625 -6.671875 C 8.242188 -7.160156 7.875 -7.550781 7.40625 -7.84375 C 6.9375 -8.132812 6.414062 -8.28125 5.84375 -8.28125 C 5.257812 -8.28125 4.734375 -8.132812 4.265625 -7.84375 C 3.796875 -7.550781 3.421875 -7.160156 3.140625 -6.671875 C 2.867188 -6.179688 2.734375 -5.632812 2.734375 -5.03125 Z M 2.734375 -5.03125 "/></g></g></g><g fill="#ff5757" fill-opacity="1"><g transform="translate(103.904919, 228.275134)"><g><path d="M 10.390625 -10.078125 L 10.390625 0.40625 L 10.328125 0.40625 L 3.28125 -5.953125 L 3.3125 0 L 1.296875 0 L 1.296875 -10.484375 L 1.390625 -10.484375 L 8.421875 -4.015625 L 8.390625 -10.078125 Z M 10.390625 -10.078125 "/></g></g></g><g fill="#ff5757" fill-opacity="1"><g transform="translate(121.070548, 228.275134)"><g><path d="M 3.28125 -10.078125 L 3.28125 -1.921875 L 8.03125 -1.921875 L 8.03125 0 L 1.296875 0 L 1.296875 -10.078125 Z M 3.28125 -10.078125 "/></g></g></g><g fill="#ff5757" fill-opacity="1"><g transform="translate(135.333171, 228.275134)"><g><path d="M 3.28125 -10.078125 L 3.28125 0 L 1.296875 0 L 1.296875 -10.078125 Z M 3.28125 -10.078125 "/></g></g></g><g fill="#ff5757" fill-opacity="1"><g transform="translate(145.405588, 228.275134)"><g><path d="M 10.390625 -10.078125 L 10.390625 0.40625 L 10.328125 0.40625 L 3.28125 -5.953125 L 3.3125 0 L 1.296875 0 L 1.296875 -10.484375 L 1.390625 -10.484375 L 8.421875 -4.015625 L 8.390625 -10.078125 Z M 10.390625 -10.078125 "/></g></g></g><g fill="#ff5757" fill-opacity="1"><g transform="translate(162.571214, 228.275134)"><g><path d="M 8.1875 -10.078125 L 8.1875 -8.171875 L 3.28125 -8.171875 L 3.28125 -6.015625 L 7.625 -6.015625 L 7.625 -4.09375 L 3.28125 -4.09375 L 3.28125 -1.921875 L 8.375 -1.921875 L 8.375 0 L 1.296875 0 L 1.296875 -10.078125 Z M 8.1875 -10.078125 "/></g></g></g><g fill="#ff5757" fill-opacity="1"><g transform="translate(177.176168, 228.275134)"><g/></g></g><g fill="#ff5757" fill-opacity="1"><g transform="translate(187.111656, 228.275134)"><g><path d="M 6.6875 -7.640625 C 5.8125 -8.128906 5.050781 -8.375 4.40625 -8.375 C 3.957031 -8.375 3.613281 -8.285156 3.375 -8.109375 C 3.132812 -7.941406 3.015625 -7.679688 3.015625 -7.328125 C 3.015625 -7.003906 3.1875 -6.722656 3.53125 -6.484375 C 3.882812 -6.242188 4.359375 -6.015625 4.953125 -5.796875 C 5.421875 -5.617188 5.820312 -5.414062 6.15625 -5.1875 C 6.5 -4.96875 6.78125 -4.660156 7 -4.265625 C 7.226562 -3.878906 7.34375 -3.382812 7.34375 -2.78125 C 7.34375 -2.257812 7.207031 -1.773438 6.9375 -1.328125 C 6.664062 -0.890625 6.269531 -0.539062 5.75 -0.28125 C 5.226562 -0.0195312 4.609375 0.109375 3.890625 0.109375 C 3.285156 0.109375 2.6875 0.0195312 2.09375 -0.15625 C 1.5 -0.332031 0.945312 -0.601562 0.4375 -0.96875 L 1.3125 -2.515625 C 1.664062 -2.265625 2.0625 -2.054688 2.5 -1.890625 C 2.945312 -1.722656 3.351562 -1.640625 3.71875 -1.640625 C 4.132812 -1.640625 4.5 -1.726562 4.8125 -1.90625 C 5.125 -2.082031 5.28125 -2.375 5.28125 -2.78125 C 5.28125 -3.300781 4.789062 -3.753906 3.8125 -4.140625 C 3.238281 -4.367188 2.757812 -4.585938 2.375 -4.796875 C 1.988281 -5.003906 1.65625 -5.304688 1.375 -5.703125 C 1.09375 -6.097656 0.953125 -6.59375 0.953125 -7.1875 C 0.953125 -8.050781 1.238281 -8.75 1.8125 -9.28125 C 2.382812 -9.8125 3.144531 -10.097656 4.09375 -10.140625 C 4.84375 -10.140625 5.46875 -10.054688 5.96875 -9.890625 C 6.476562 -9.722656 6.96875 -9.484375 7.4375 -9.171875 Z M 6.6875 -7.640625 "/></g></g></g><g fill="#ff5757" fill-opacity="1"><g transform="translate(200.58005, 228.275134)"><g><path d="M 9.78125 0 L 7.796875 0 L 7.796875 -4.09375 L 3.28125 -4.09375 L 3.28125 0 L 1.296875 0 L 1.296875 -10.078125 L 3.28125 -10.078125 L 3.28125 -6.015625 L 7.796875 -6.015625 L 7.796875 -10.078125 L 9.78125 -10.078125 Z M 9.78125 0 "/></g></g></g><g fill="#ff5757" fill-opacity="1"><g transform="translate(217.14316, 228.275134)"><g><path d="M 0.6875 -5.03125 C 0.6875 -5.945312 0.914062 -6.800781 1.375 -7.59375 C 1.832031 -8.382812 2.457031 -9.015625 3.25 -9.484375 C 4.039062 -9.953125 4.898438 -10.1875 5.828125 -10.1875 C 6.742188 -10.1875 7.597656 -9.953125 8.390625 -9.484375 C 9.179688 -9.015625 9.8125 -8.382812 10.28125 -7.59375 C 10.75 -6.800781 10.984375 -5.945312 10.984375 -5.03125 C 10.984375 -4.09375 10.75 -3.234375 10.28125 -2.453125 C 9.8125 -1.671875 9.179688 -1.046875 8.390625 -0.578125 C 7.597656 -0.117188 6.742188 0.109375 5.828125 0.109375 C 4.890625 0.109375 4.023438 -0.117188 3.234375 -0.578125 C 2.453125 -1.046875 1.832031 -1.671875 1.375 -2.453125 C 0.914062 -3.234375 0.6875 -4.09375 0.6875 -5.03125 Z M 2.734375 -5.03125 C 2.734375 -4.445312 2.875 -3.90625 3.15625 -3.40625 C 3.4375 -2.914062 3.816406 -2.523438 4.296875 -2.234375 C 4.773438 -1.953125 5.304688 -1.8125 5.890625 -1.8125 C 6.453125 -1.8125 6.96875 -1.953125 7.4375 -2.234375 C 7.90625 -2.523438 8.269531 -2.914062 8.53125 -3.40625 C 8.800781 -3.894531 8.9375 -4.4375 8.9375 -5.03125 C 8.9375 -5.632812 8.796875 -6.179688 8.515625 -6.671875 C 8.242188 -7.160156 7.875 -7.550781 7.40625 -7.84375 C 6.9375 -8.132812 6.414062 -8.28125 5.84375 -8.28125 C 5.257812 -8.28125 4.734375 -8.132812 4.265625 -7.84375 C 3.796875 -7.550781 3.421875 -7.160156 3.140625 -6.671875 C 2.867188 -6.179688 2.734375 -5.632812 2.734375 -5.03125 Z M 2.734375 -5.03125 "/></g></g></g><g fill="#ff5757" fill-opacity="1"><g transform="translate(234.295086, 228.275134)"><g><path d="M 4.359375 -10.078125 C 5.585938 -10.078125 6.539062 -9.773438 7.21875 -9.171875 C 7.894531 -8.566406 8.234375 -7.738281 8.234375 -6.6875 C 8.234375 -6.082031 8.113281 -5.515625 7.875 -4.984375 C 7.644531 -4.460938 7.265625 -4.03125 6.734375 -3.6875 C 6.210938 -3.351562 5.539062 -3.1875 4.71875 -3.1875 L 3.28125 -3.1875 L 3.28125 0 L 1.296875 0 L 1.296875 -10.078125 Z M 4.703125 -5.125 C 5.078125 -5.125 5.378906 -5.207031 5.609375 -5.375 C 5.835938 -5.539062 6 -5.738281 6.09375 -5.96875 C 6.195312 -6.195312 6.25 -6.414062 6.25 -6.625 C 6.25 -6.988281 6.144531 -7.335938 5.9375 -7.671875 C 5.726562 -8.003906 5.320312 -8.171875 4.71875 -8.171875 L 3.28125 -8.171875 L 3.28125 -5.125 Z M 4.703125 -5.125 "/></g></g></g><g fill="#ff5757" fill-opacity="1"><g transform="translate(248.489235, 228.275134)"><g><path d="M 4.359375 -10.078125 C 5.585938 -10.078125 6.539062 -9.773438 7.21875 -9.171875 C 7.894531 -8.566406 8.234375 -7.738281 8.234375 -6.6875 C 8.234375 -6.082031 8.113281 -5.515625 7.875 -4.984375 C 7.644531 -4.460938 7.265625 -4.03125 6.734375 -3.6875 C 6.210938 -3.351562 5.539062 -3.1875 4.71875 -3.1875 L 3.28125 -3.1875 L 3.28125 0 L 1.296875 0 L 1.296875 -10.078125 Z M 4.703125 -5.125 C 5.078125 -5.125 5.378906 -5.207031 5.609375 -5.375 C 5.835938 -5.539062 6 -5.738281 6.09375 -5.96875 C 6.195312 -6.195312 6.25 -6.414062 6.25 -6.625 C 6.25 -6.988281 6.144531 -7.335938 5.9375 -7.671875 C 5.726562 -8.003906 5.320312 -8.171875 4.71875 -8.171875 L 3.28125 -8.171875 L 3.28125 -5.125 Z M 4.703125 -5.125 "/></g></g></g><g fill="#ff5757" fill-opacity="1"><g transform="translate(262.683385, 228.275134)"><g><path d="M 3.28125 -10.078125 L 3.28125 0 L 1.296875 0 L 1.296875 -10.078125 Z M 3.28125 -10.078125 "/></g></g></g><g fill="#ff5757" fill-opacity="1"><g transform="translate(272.755798, 228.275134)"><g><path d="M 10.390625 -10.078125 L 10.390625 0.40625 L 10.328125 0.40625 L 3.28125 -5.953125 L 3.3125 0 L 1.296875 0 L 1.296875 -10.484375 L 1.390625 -10.484375 L 8.421875 -4.015625 L 8.390625 -10.078125 Z M 10.390625 -10.078125 "/></g></g></g><g fill="#ff5757" fill-opacity="1"><g transform="translate(289.921423, 228.275134)"><g><path d="M 9.484375 -1.015625 C 9.328125 -0.847656 9.050781 -0.675781 8.65625 -0.5 C 8.257812 -0.320312 7.820312 -0.175781 7.34375 -0.0625 C 6.863281 0.0507812 6.425781 0.109375 6.03125 0.109375 C 4.957031 0.109375 4.015625 -0.0976562 3.203125 -0.515625 C 2.398438 -0.929688 1.78125 -1.503906 1.34375 -2.234375 C 0.90625 -2.972656 0.6875 -3.8125 0.6875 -4.75 C 0.6875 -5.925781 0.914062 -6.921875 1.375 -7.734375 C 1.84375 -8.554688 2.46875 -9.171875 3.25 -9.578125 C 4.039062 -9.984375 4.910156 -10.1875 5.859375 -10.1875 C 6.472656 -10.1875 7.050781 -10.117188 7.59375 -9.984375 C 8.132812 -9.847656 8.609375 -9.671875 9.015625 -9.453125 L 8.375 -7.609375 C 8.101562 -7.753906 7.738281 -7.882812 7.28125 -8 C 6.820312 -8.125 6.4375 -8.1875 6.125 -8.1875 C 5.03125 -8.1875 4.191406 -7.910156 3.609375 -7.359375 C 3.023438 -6.816406 2.734375 -6.007812 2.734375 -4.9375 C 2.734375 -4.3125 2.875 -3.769531 3.15625 -3.3125 C 3.445312 -2.851562 3.84375 -2.5 4.34375 -2.25 C 4.851562 -2 5.429688 -1.875 6.078125 -1.875 C 6.703125 -1.875 7.164062 -1.960938 7.46875 -2.140625 L 7.46875 -3.359375 L 5.734375 -3.359375 L 5.734375 -5.28125 L 9.484375 -5.28125 Z M 9.484375 -1.015625 "/></g></g></g><g fill="#ff5757" fill-opacity="1"><g transform="translate(305.847506, 228.275134)"><g/></g></g></svg>