<svg xmlns="http://www.w3.org/2000/svg" xmlns:xlink="http://www.w3.org/1999/xlink" width="500" zoomAndPan="magnify" viewBox="0 0 375 374.999991" height="500" preserveAspectRatio="xMidYMid meet" version="1.0"><defs><g/></defs><g fill="#5e17eb" fill-opacity="1"><g transform="translate(9.14369, 232.16468)"><g><path d="M 4.21875 0 L 4.21875 -1.921875 L 8.640625 -3.640625 C 10.804688 -4.535156 12.304688 -5.71875 13.140625 -7.1875 C 13.972656 -8.664062 14.390625 -10.679688 14.390625 -13.234375 L 14.390625 -113.390625 C 14.390625 -115.953125 14.035156 -117.96875 13.328125 -119.4375 C 12.628906 -120.914062 11.066406 -122.097656 8.640625 -122.984375 L 4.21875 -124.71875 L 4.21875 -126.640625 L 96.125 -126.640625 L 97.28125 -97.09375 L 95.359375 -97.09375 L 87.109375 -115.125 C 85.960938 -117.425781 84.75 -119.28125 83.46875 -120.6875 C 82.1875 -122.09375 80.265625 -122.796875 77.703125 -122.796875 L 43.171875 -122.796875 L 43.171875 -67.34375 L 63.703125 -67.34375 C 66.265625 -67.34375 68.210938 -68.015625 69.546875 -69.359375 C 70.890625 -70.703125 72.078125 -72.523438 73.109375 -74.828125 L 76.9375 -82.5 L 78.859375 -82.5 L 78.859375 -47.96875 L 76.9375 -47.96875 L 73.109375 -56.03125 C 71.953125 -58.332031 70.734375 -60.15625 69.453125 -61.5 C 68.179688 -62.84375 66.265625 -63.515625 63.703125 -63.515625 L 43.171875 -63.515625 L 43.171875 -3.84375 L 81.9375 -3.84375 C 84.488281 -3.84375 86.46875 -4.507812 87.875 -5.84375 C 89.28125 -7.1875 90.429688 -9.078125 91.328125 -11.515625 L 99.203125 -29.546875 L 101.125 -29.546875 L 99.96875 0 Z M 4.21875 0 "/></g></g></g><g fill="#5e17eb" fill-opacity="1"><g transform="translate(115.633412, 232.16468)"><g><path d="M 40.296875 2.875 C 32.109375 2.875 25.742188 0.828125 21.203125 -3.265625 C 16.660156 -7.359375 14.390625 -13.878906 14.390625 -22.828125 L 14.390625 -88.453125 L 1.15625 -88.453125 L 1.15625 -90.375 L 5.75 -91.140625 C 9.71875 -92.035156 13.140625 -93.3125 16.015625 -94.96875 C 18.898438 -96.632812 21.75 -98.875 24.5625 -101.6875 L 40.296875 -119.15625 L 42.21875 -119.15625 L 41.640625 -92.296875 L 63.125 -92.296875 L 63.125 -88.453125 L 41.4375 -88.453125 L 41.4375 -19.375 C 41.4375 -14.894531 42.425781 -11.503906 44.40625 -9.203125 C 46.394531 -6.898438 48.925781 -5.75 52 -5.75 C 54.6875 -5.75 57.050781 -6.421875 59.09375 -7.765625 C 61.144531 -9.109375 63.191406 -10.929688 65.234375 -13.234375 L 67.15625 -11.328125 C 64.59375 -6.972656 61.070312 -3.515625 56.59375 -0.953125 C 52.125 1.597656 46.691406 2.875 40.296875 2.875 Z M 40.296875 2.875 "/></g></g></g><g fill="#5e17eb" fill-opacity="1"><g transform="translate(184.899697, 232.16468)"><g><path d="M 37.03125 2.875 C 30.757812 2.875 25.128906 2.140625 20.140625 0.671875 C 15.148438 -0.796875 10.546875 -2.617188 6.328125 -4.796875 L 6.53125 -27.625 L 8.4375 -27.625 L 14.96875 -16.125 C 17.78125 -11 20.878906 -7.1875 24.265625 -4.6875 C 27.660156 -2.195312 31.976562 -0.953125 37.21875 -0.953125 C 43.363281 -0.953125 48.320312 -2.328125 52.09375 -5.078125 C 55.863281 -7.828125 57.75 -11.507812 57.75 -16.125 C 57.75 -20.34375 56.40625 -23.796875 53.71875 -26.484375 C 51.039062 -29.171875 46.054688 -31.597656 38.765625 -33.765625 L 30.703125 -36.265625 C 22.898438 -38.566406 16.757812 -42.144531 12.28125 -47 C 7.800781 -51.863281 5.5625 -57.816406 5.5625 -64.859375 C 5.5625 -73.296875 8.882812 -80.457031 15.53125 -86.34375 C 22.1875 -92.226562 31.71875 -95.171875 44.125 -95.171875 C 49.113281 -95.171875 53.816406 -94.625 58.234375 -93.53125 C 62.648438 -92.445312 66.90625 -90.816406 71 -88.640625 L 69.84375 -67.921875 L 67.921875 -67.921875 L 61.203125 -79.8125 C 58.773438 -84.039062 56.378906 -87.015625 54.015625 -88.734375 C 51.648438 -90.460938 48.097656 -91.328125 43.359375 -91.328125 C 39.015625 -91.328125 34.921875 -90.113281 31.078125 -87.6875 C 27.242188 -85.257812 25.328125 -81.804688 25.328125 -77.328125 C 25.328125 -72.972656 26.957031 -69.515625 30.21875 -66.953125 C 33.476562 -64.398438 38.304688 -62.035156 44.703125 -59.859375 L 53.34375 -57.375 C 62.550781 -54.5625 69.132812 -50.691406 73.09375 -45.765625 C 77.0625 -40.835938 79.046875 -34.921875 79.046875 -28.015625 C 79.046875 -18.671875 75.367188 -11.1875 68.015625 -5.5625 C 60.660156 0.0625 50.332031 2.875 37.03125 2.875 Z M 37.03125 2.875 "/></g></g></g><g fill="#5e17eb" fill-opacity="1"><g transform="translate(268.556489, 232.16468)"><g><path d="M 52 -95.171875 C 60.3125 -95.171875 67.410156 -93.472656 73.296875 -90.078125 C 79.179688 -86.691406 83.691406 -82.085938 86.828125 -76.265625 C 89.960938 -70.453125 91.53125 -63.832031 91.53125 -56.40625 C 91.53125 -55 91.460938 -53.5625 91.328125 -52.09375 C 91.203125 -50.625 90.945312 -49.3125 90.5625 -48.15625 L 33.390625 -48.15625 C 33.515625 -34.34375 35.972656 -24.394531 40.765625 -18.3125 C 45.566406 -12.238281 52.703125 -9.203125 62.171875 -9.203125 C 68.566406 -9.203125 73.742188 -10.222656 77.703125 -12.265625 C 81.671875 -14.316406 85.382812 -17.328125 88.84375 -21.296875 L 90.75 -19.578125 C 86.789062 -12.535156 81.515625 -7.03125 74.921875 -3.0625 C 68.335938 0.894531 60.441406 2.875 51.234375 2.875 C 42.148438 2.875 34.085938 0.925781 27.046875 -2.96875 C 20.015625 -6.875 14.515625 -12.472656 10.546875 -19.765625 C 6.585938 -27.054688 4.609375 -35.753906 4.609375 -45.859375 C 4.609375 -56.347656 6.910156 -65.269531 11.515625 -72.625 C 16.117188 -79.976562 22.035156 -85.570312 29.265625 -89.40625 C 36.492188 -93.25 44.070312 -95.171875 52 -95.171875 Z M 51.421875 -91.328125 C 47.710938 -91.328125 44.546875 -90.207031 41.921875 -87.96875 C 39.296875 -85.726562 37.25 -81.765625 35.78125 -76.078125 C 34.3125 -70.390625 33.515625 -62.363281 33.390625 -52 L 66.203125 -52 C 67.472656 -65.9375 66.957031 -75.972656 64.65625 -82.109375 C 62.351562 -88.253906 57.941406 -91.328125 51.421875 -91.328125 Z M 51.421875 -91.328125 "/></g></g></g></svg>